<?xml version="1.0" encoding="utf-8"?>
<COLLADA xmlns="http://www.collada.org/2005/11/COLLADASchema" version="1.4.1" xmlns:xsi="http://www.w3.org/2001/XMLSchema-instance">
  <asset>
    <contributor>
      <author>Blender User</author>
      <authoring_tool>Blender 4.4.0 commit date:2025-03-17, commit time:17:00, hash:05377985c527</authoring_tool>
    </contributor>
    <created>2026-08-23T20:41:07</created>
    <modified>2026-08-23T20:41:07</modified>
    <unit name="meter" meter="1"/>
    <up_axis>Z_UP</up_axis>
  </asset>
  <library_effects>
    <effect id="Material-effect">
      <profile_COMMON>
        <technique sid="common">
          <lambert>
            <emission>
              <color sid="emission">0 0 0 1</color>
            </emission>
            <diffuse>
              <color sid="diffuse">0.8 0.8 0.8 1</color>
            </diffuse>
            <index_of_refraction>
              <float sid="ior">1.45</float>
            </index_of_refraction>
          </lambert>
        </technique>
      </profile_COMMON>
    </effect>
  </library_effects>
  <library_images/>
  <library_materials>
    <material id="Material-material" name="Material">
      <instance_effect url="#Material-effect"/>
    </material>
  </library_materials>
  <library_geometries>
    <geometry id="Cube-mesh" name="Cube">
      <mesh>
        <source id="Cube-mesh-positions">
          <float_array id="Cube-mesh-positions-array" count="120">1 1 1 1 1 -1 1 -1 1 1 -1 -1 -1 1 1 -1 1 -1 -1 -1 1 -1 -1 -1 1 1 0.7142857 1 1 0.4285714 1 1 0.1428571 1 1 -0.1428571 1 1 -0.4285714 1 1 -0.7142857 -1 -1 -0.7142857 -1 -1 -0.4285714 -1 -1 -0.1428571 -1 -1 0.1428571 -1 -1 0.4285714 -1 -1 0.7142857 1 -1 0.7142857 1 -1 0.4285714 1 -1 0.1428571 1 -1 -0.1428571 1 -1 -0.4285714 1 -1 -0.7142857 -1 1 0.7142857 -1 1 0.4285714 -1 1 0.1428571 -1 1 -0.1428571 -1 1 -0.4285714 -1 1 -0.7142857 1 4.501141 0.4285714 1 4.501141 0.1428571 -1 -4.501141 0.1428571 -1 -4.501141 0.4285714 1 -4.501141 0.4285714 1 -4.501141 0.1428571 -1 4.501141 0.4285714 -1 4.501141 0.1428571</float_array>
          <technique_common>
            <accessor source="#Cube-mesh-positions-array" count="40" stride="3">
              <param name="X" type="float"/>
              <param name="Y" type="float"/>
              <param name="Z" type="float"/>
            </accessor>
          </technique_common>
        </source>
        <source id="Cube-mesh-normals">
          <float_array id="Cube-mesh-normals-array" count="228">0 0 1 0 -1 0 -1 0 0 0 0 -1 1 0 0 0 1 0 0 1 0 0 1 0 0 1 0 0 1 0 1 0 0 0 1 0 1 0 0 1 0 0 1 0 0 1 0 0 1 0 0 1 0 0 -1 0 0 -1 0 0 -1 0 0 -1 0 0 -1 0 0 -1 0 0 0 -1 0 0 -1 0 0 -1 0 0 -1 0 0 0 1 0 -1 0 0 1 0 0 -1 0 -1 0 0 0 0 -1 1 0 0 0 0 -1 -1 0 0 0 0 1 0 0 1 0 -1 0 -1 0 0 0 0 -1 1 0 0 0 1 0 0 1 0 0 1 0 0 1 0 0 1 0 1 0 0 0 1 0 1 0 0 1 0 0 1 0 0 1 0 0 1 0 0 1 0 0 -1 0 0 -1 0 0 -1 0 0 -1 0 0 -1 0 0 -1 0 0 0 -1 0 0 -1 0 0 -1 0 0 -1 0 0 0 1 0 -1 0 0 1 0 0 -1 0 -1 0 0 0 0 -1 1 0 0 0 0 -1 -1 0 0 0 0 1</float_array>
          <technique_common>
            <accessor source="#Cube-mesh-normals-array" count="76" stride="3">
              <param name="X" type="float"/>
              <param name="Y" type="float"/>
              <param name="Z" type="float"/>
            </accessor>
          </technique_common>
        </source>
        <source id="Cube-mesh-map-0">
          <float_array id="Cube-mesh-map-0-array" count="456">0.875 0.5 0.625 0.75 0.625 0.5 0.625 0.75 0.5892857 1 0.5892857 0.75 0.625 0 0.5892857 0.25 0.5892857 0 0.375 0.5 0.125 0.75 0.125 0.5 0.625 0.5 0.5892857 0.75 0.5892857 0.5 0.625 0.25 0.5892857 0.5 0.5892857 0.25 0.4107143 0.25 0.375 0.5 0.375 0.25 0.4464285 0.25 0.4107143 0.5 0.4107143 0.25 0.4821429 0.25 0.4464285 0.5 0.4464285 0.25 0.5178572 0.25 0.4821429 0.5 0.4821429 0.25 0.5178572 0.5 0.5535715 0.5 0.5535715 0.5 0.5892857 0.25 0.5535715 0.5 0.5535715 0.25 0.4107143 0.5 0.375 0.75 0.375 0.5 0.4464285 0.5 0.4107143 0.75 0.4107143 0.5 0.4821429 0.5 0.4464285 0.75 0.4464285 0.5 0.5178572 0.5 0.4821429 0.75 0.4821429 0.5 0.5535715 0.5 0.5178572 0.75 0.5178572 0.5 0.5892857 0.5 0.5535715 0.75 0.5535715 0.5 0.4107143 0 0.375 0.25 0.375 0 0.4464285 0 0.4107143 0.25 0.4107143 0 0.4821428 0 0.4464285 0.25 0.4464285 0 0.5178571 0 0.4821429 0.25 0.4821428 0 0.5535714 0 0.5178572 0.25 0.5178571 0 0.5892857 0 0.5535715 0.25 0.5535714 0 0.4107143 0.75 0.375 1 0.375 0.75 0.4464285 0.75 0.4107143 1 0.4107143 0.75 0.4821429 0.75 0.4464285 1 0.4464285 0.75 0.5178572 0.75 0.4821428 1 0.4821429 0.75 0.5535714 1 0.5535715 0.75 0.5535715 0.75 0.5892857 0.75 0.5535714 1 0.5535715 0.75 0.5535715 0.25 0.5178572 0.5 0.5178572 0.25 0.5535715 0.75 0.5178571 1 0.5178572 0.75 0.5535715 0.25 0.5178572 0.25 0.5178572 0.25 0.5178572 0.25 0.5178572 0.5 0.5178572 0.5 0.5535715 0.75 0.5178572 0.75 0.5178572 0.75 0.5178572 0.75 0.5178571 1 0.5178571 1 0.5178571 0 0.5535714 0 0.5535714 0 0.5535715 0.5 0.5535715 0.25 0.5535715 0.25 0.875 0.5 0.875 0.75 0.625 0.75 0.625 0.75 0.625 1 0.5892857 1 0.625 0 0.625 0.25 0.5892857 0.25 0.375 0.5 0.375 0.75 0.125 0.75 0.625 0.5 0.625 0.75 0.5892857 0.75 0.625 0.25 0.625 0.5 0.5892857 0.5 0.4107143 0.25 0.4107143 0.5 0.375 0.5 0.4464285 0.25 0.4464285 0.5 0.4107143 0.5 0.4821429 0.25 0.4821429 0.5 0.4464285 0.5 0.5178572 0.25 0.5178572 0.5 0.4821429 0.5 0.5178572 0.5 0.5178572 0.5 0.5535715 0.5 0.5892857 0.25 0.5892857 0.5 0.5535715 0.5 0.4107143 0.5 0.4107143 0.75 0.375 0.75 0.4464285 0.5 0.4464285 0.75 0.4107143 0.75 0.4821429 0.5 0.4821429 0.75 0.4464285 0.75 0.5178572 0.5 0.5178572 0.75 0.4821429 0.75 0.5535715 0.5 0.5535715 0.75 0.5178572 0.75 0.5892857 0.5 0.5892857 0.75 0.5535715 0.75 0.4107143 0 0.4107143 0.25 0.375 0.25 0.4464285 0 0.4464285 0.25 0.4107143 0.25 0.4821428 0 0.4821429 0.25 0.4464285 0.25 0.5178571 0 0.5178572 0.25 0.4821429 0.25 0.5535714 0 0.5535715 0.25 0.5178572 0.25 0.5892857 0 0.5892857 0.25 0.5535715 0.25 0.4107143 0.75 0.4107143 1 0.375 1 0.4464285 0.75 0.4464285 1 0.4107143 1 0.4821429 0.75 0.4821428 1 0.4464285 1 0.5178572 0.75 0.5178571 1 0.4821428 1 0.5535714 1 0.5535714 1 0.5535715 0.75 0.5892857 0.75 0.5892857 1 0.5535714 1 0.5535715 0.25 0.5535715 0.5 0.5178572 0.5 0.5535715 0.75 0.5535714 1 0.5178571 1 0.5535715 0.25 0.5535715 0.25 0.5178572 0.25 0.5178572 0.25 0.5178572 0.25 0.5178572 0.5 0.5535715 0.75 0.5535715 0.75 0.5178572 0.75 0.5178572 0.75 0.5178572 0.75 0.5178571 1 0.5178571 0 0.5178571 0 0.5535714 0 0.5535715 0.5 0.5535715 0.5 0.5535715 0.25</float_array>
          <technique_common>
            <accessor source="#Cube-mesh-map-0-array" count="228" stride="2">
              <param name="S" type="float"/>
              <param name="T" type="float"/>
            </accessor>
          </technique_common>
        </source>
        <vertices id="Cube-mesh-vertices">
          <input semantic="POSITION" source="#Cube-mesh-positions"/>
        </vertices>
        <triangles material="Material-material" count="76">
          <input semantic="VERTEX" source="#Cube-mesh-vertices" offset="0"/>
          <input semantic="NORMAL" source="#Cube-mesh-normals" offset="1"/>
          <input semantic="TEXCOORD" source="#Cube-mesh-map-0" offset="2" set="0"/>
          <p>4 0 0 2 0 1 0 0 2 2 1 3 19 1 4 20 1 5 6 2 6 26 2 7 19 2 8 1 3 9 7 3 10 5 3 11 0 4 12 20 4 13 8 4 14 4 5 15 8 5 16 26 5 17 31 6 18 1 6 19 5 6 20 30 7 21 13 7 22 31 7 23 29 8 24 12 8 25 30 8 26 28 9 27 11 9 28 29 9 29 10 10 30 32 10 31 9 10 32 26 11 33 9 11 34 27 11 35 13 12 36 3 12 37 1 12 38 12 13 39 25 13 40 13 13 41 11 14 42 24 14 43 12 14 44 10 15 45 23 15 46 11 15 47 9 16 48 22 16 49 10 16 50 8 17 51 21 17 52 9 17 53 14 18 54 5 18 55 7 18 56 15 19 57 31 19 58 14 19 59 16 20 60 30 20 61 15 20 62 17 21 63 29 21 64 16 21 65 18 22 66 28 22 67 17 22 68 19 23 69 27 23 70 18 23 71 25 24 72 7 24 73 3 24 74 24 25 75 14 25 76 25 25 77 23 26 78 15 26 79 24 26 80 22 27 81 16 27 82 23 27 83 18 28 84 36 28 85 21 28 86 20 29 87 18 29 88 21 29 89 38 30 90 33 30 91 39 30 92 36 31 93 34 31 94 37 31 95 27 32 96 39 32 97 28 32 98 28 33 99 33 33 100 10 33 101 21 34 102 37 34 103 22 34 104 22 35 105 34 35 106 17 35 107 17 36 108 35 36 109 18 36 110 9 37 111 38 37 112 27 37 113 4 38 114 6 38 115 2 38 116 2 39 117 6 39 118 19 39 119 6 40 120 4 40 121 26 40 122 1 41 123 3 41 124 7 41 125 0 42 126 2 42 127 20 42 128 4 43 129 0 43 130 8 43 131 31 44 132 13 44 133 1 44 134 30 45 135 12 45 136 13 45 137 29 46 138 11 46 139 12 46 140 28 47 141 10 47 142 11 47 143 10 48 144 33 48 145 32 48 146 26 49 147 8 49 148 9 49 149 13 50 150 25 50 151 3 50 152 12 51 153 24 51 154 25 51 155 11 52 156 23 52 157 24 52 158 10 53 159 22 53 160 23 53 161 9 54 162 21 54 163 22 54 164 8 55 165 20 55 166 21 55 167 14 56 168 31 56 169 5 56 170 15 57 171 30 57 172 31 57 173 16 58 174 29 58 175 30 58 176 17 59 177 28 59 178 29 59 179 18 60 180 27 60 181 28 60 182 19 61 183 26 61 184 27 61 185 25 62 186 14 62 187 7 62 188 24 63 189 15 63 190 14 63 191 23 64 192 16 64 193 15 64 194 22 65 195 17 65 196 16 65 197 18 66 198 35 66 199 36 66 200 20 67 201 19 67 202 18 67 203 38 68 204 32 68 205 33 68 206 36 69 207 35 69 208 34 69 209 27 70 210 38 70 211 39 70 212 28 71 213 39 71 214 33 71 215 21 72 216 36 72 217 37 72 218 22 73 219 37 73 220 34 73 221 17 74 222 34 74 223 35 74 224 9 75 225 32 75 226 38 75 227</p>
        </triangles>
      </mesh>
    </geometry>
  </library_geometries>
  <library_visual_scenes>
    <visual_scene id="Scene" name="Scene">
      <node id="Cube" name="Cube" type="NODE">
        <matrix sid="transform">0.1647441 0 0 0 0 0.2301845 0 0 0 0 1.51507 1.5 0 0 0 1</matrix>
        <instance_geometry url="#Cube-mesh" name="Cube">
          <bind_material>
            <technique_common>
              <instance_material symbol="Material-material" target="#Material-material">
                <bind_vertex_input semantic="UVMap" input_semantic="TEXCOORD" input_set="0"/>
              </instance_material>
            </technique_common>
          </bind_material>
        </instance_geometry>
      </node>
    </visual_scene>
  </library_visual_scenes>
  <scene>
    <instance_visual_scene url="#Scene"/>
  </scene>
</COLLADA>