<?xml version="1.0" encoding="utf-8"?>
<COLLADA xmlns="http://www.collada.org/2005/11/COLLADASchema" version="1.4.1" xmlns:xsi="http://www.w3.org/2001/XMLSchema-instance">
  <asset>
    <contributor>
      <author>Blender User</author>
      <authoring_tool>Blender 4.4.0 commit date:2025-03-17, commit time:17:00, hash:05377985c527</authoring_tool>
    </contributor>
    <created>2026-08-22T22:12:21</created>
    <modified>2026-08-22T22:12:21</modified>
    <unit name="meter" meter="1"/>
    <up_axis>Z_UP</up_axis>
  </asset>
  <library_effects>
    <effect id="WoodBright2_009-effect">
      <profile_COMMON>
        <technique sid="common">
          <lambert>
            <emission>
              <color sid="emission">0 0 0 1</color>
            </emission>
            <diffuse>
              <color sid="diffuse">0.1959883 0.1091996 0.03578021 1</color>
            </diffuse>
            <index_of_refraction>
              <float sid="ior">1.45</float>
            </index_of_refraction>
          </lambert>
        </technique>
      </profile_COMMON>
    </effect>
    <effect id="WoodBright_010-effect">
      <profile_COMMON>
        <technique sid="common">
          <lambert>
            <emission>
              <color sid="emission">0 0 0 1</color>
            </emission>
            <diffuse>
              <color sid="diffuse">0.2529429 0.1492706 0.04937002 1</color>
            </diffuse>
            <index_of_refraction>
              <float sid="ior">1.45</float>
            </index_of_refraction>
          </lambert>
        </technique>
      </profile_COMMON>
    </effect>
  </library_effects>
  <library_images/>
  <library_materials>
    <material id="WoodBright2_009-material" name="WoodBright2.009">
      <instance_effect url="#WoodBright2_009-effect"/>
    </material>
    <material id="WoodBright_010-material" name="WoodBright.010">
      <instance_effect url="#WoodBright_010-effect"/>
    </material>
  </library_materials>
  <library_geometries>
    <geometry id="Cube_018-mesh" name="Cube.018">
      <mesh>
        <source id="Cube_018-mesh-positions">
          <float_array id="Cube_018-mesh-positions-array" count="342">-1 -1 0 -1 -1 2 -1 1 0 -1 1 2 1 -1 0 1 -1 2 1 1 0 1 1 2 0 1.500907 -1.19209e-7 0 1.500907 2 0 -1.500907 -1.19209e-7 0 -1.500907 2 -1.500907 0 -1.19209e-7 -1.500907 0 2 1.500907 0 -1.19209e-7 1.500907 0 2 0 0 -1.19209e-7 -1.177244 0 2.054046 -0.7843555 0.7843555 2.054046 0 1.177244 2.054046 0.7843555 0.7843555 2.054046 1.177244 0 2.054046 0.7843555 -0.7843555 2.054046 0 -1.177244 2.054046 -0.7843555 -0.7843555 2.054046 0 0 2.054046 -0.836207 -0.8866106 0.5458558 -0.9493173 -1.22151 1.014523 -0.8441517 -1.15801 1.412126 -1.138697 1.181789 1.422791 -1.158925 1.124408 0.9707663 -1.147942 0.9236949 0.5589842 0.8779485 1.034774 1.372691 0.8228804 1.145244 1.010097 1.061433 0.9326727 0.5747205 0.9866304 -0.7949211 1.399257 1.055978 -1.221128 0.995013 1.117666 -1.046039 0.4537137 -0.1226511 -1.388855 1.382518 0.1642292 -1.661365 1.007904 -0.07887327 -1.314133 0.4787884 0.01877486 1.359729 1.376056 0.01407635 1.3113 0.9650279 0.1986517 1.407362 0.5319074 1.304641 0.08333915 1.456103 1.348068 -0.1682261 1.014421 1.644116 0.1693826 0.529619 -1.653595 0.05315405 1.38116 -1.562359 0.07603329 1.066312 -1.367614 -0.03864723 0.4563462 -0.4921012 0 1.689627 -0.4921012 0 1.939882 -0.4921012 41.56142 1.689627 -0.4921012 41.56142 1.939882 0.4921012 0 1.689627 0.4921012 0 1.939882 0.4921012 41.56142 1.689627 0.4921012 41.56142 1.939882 -0.4776728 35.65845 1.693206 -0.4194278 29.24739 1.707925 -0.4306 23.50371 1.703241 -0.5561662 18.08815 1.674378 -0.5539643 12.03812 1.674281 -0.4350114 5.783628 1.707863 -0.4388994 5.995547 1.923191 -0.5016562 11.90583 1.94211 -0.5356004 17.73254 1.952881 -0.4790527 23.8252 1.936305 -0.4146674 29.22056 1.920529 -0.4816403 35.61398 1.937124 0.494012 5.944438 1.689034 0.505652 11.8232 1.686525 0.5254288 18.01346 1.679935 0.5533773 23.53775 1.672585 0.5487529 29.40666 1.674196 0.529122 35.54188 1.681627 0.4466428 35.71608 1.930201 0.4385809 29.46435 1.92777 0.531583 23.9013 1.949476 0.412093 17.89913 1.919431 0.5169462 11.92615 1.947299 0.462658 5.900152 1.93056 -0.4921012 0 0.8748789 -0.4921012 0 1.125134 -0.4921012 41.56142 0.8748789 -0.4921012 41.56142 1.125134 0.4921012 0 0.8748789 0.4921012 0 1.125134 0.4921012 41.56142 0.8748789 0.4921012 41.56142 1.125134 -0.4776728 35.65845 0.8784585 -0.4194278 29.24739 0.8931772 -0.4306 23.50371 0.8884928 -0.5561662 18.08815 0.8596305 -0.5539643 12.03812 0.8595335 -0.4350114 5.783628 0.8931151 -0.4388994 5.995547 1.108443 -0.5016562 11.90583 1.127362 -0.5356004 17.73254 1.138133 -0.4790527 23.8252 1.121557 -0.4146674 29.22056 1.105781 -0.4816403 35.61398 1.122376 0.494012 5.944438 0.8742857 0.505652 11.8232 0.8717767 0.5254288 18.01346 0.8651872 0.5533773 23.53775 0.8578374 0.5487529 29.40666 0.8594481 0.529122 35.54188 0.8668788 0.4466428 35.71608 1.115453 0.4385809 29.46435 1.113022 0.531583 23.9013 1.134728 0.412093 17.89913 1.104683 0.5169462 11.92615 1.13255 0.462658 5.900152 1.115812</float_array>
          <technique_common>
            <accessor source="#Cube_018-mesh-positions-array" count="114" stride="3">
              <param name="X" type="float"/>
              <param name="Y" type="float"/>
              <param name="Z" type="float"/>
            </accessor>
          </technique_common>
        </source>
        <source id="Cube_018-mesh-normals">
          <float_array id="Cube_018-mesh-normals-array" count="648">-0.8639911 0.3820679 0.3279381 0.3461442 0.9172384 -0.1971242 0.8830409 -0.2961794 -0.3640285 -0.3069784 -0.9452729 -0.1105593 1.19209e-7 0 -1 -0.08222067 0.1641436 0.9830039 0.08222067 -0.1641436 0.9830039 0 -1.19209e-7 -1 0.4542211 -0.8399761 -0.2968557 -0.1307494 0.9361919 0.3262659 0 1.19209e-7 -1 0.1641436 -0.08222061 0.9830039 -0.1641436 -0.08222067 0.9830039 1.19209e-7 0 -1 0.9064643 0.3929724 -0.154581 -0.828525 -0.5555173 -0.07033336 0 0 1 0 0 1 0 0 1 0 0 1 -0.1641436 0.08222061 0.9830039 -0.08222061 -0.1641436 0.9830039 0.08222061 0.1641436 0.9830039 0.1641436 0.08222067 0.9830039 -0.8726254 -0.4371039 0.2178646 -0.828082 -0.5362138 -0.1635695 -0.859591 -0.4178637 0.2940978 0.8343988 0.4179559 -0.3592931 0.6095225 0.4257861 0.6687216 0.9220511 0.3682876 -0.1191052 -0.4259938 0.8504455 0.3086613 -0.3361567 0.9395514 0.06512945 -0.1568144 0.9806179 -0.1174639 0.4125421 -0.8235907 0.3892395 0.2042911 -0.9379764 -0.2801172 0.3218331 -0.6312468 0.7056564 -0.4318301 -0.862097 0.2651629 -0.4357428 -0.679254 -0.5905441 -0.3395119 -0.8650748 0.369293 0.8615853 -0.4315739 -0.2672353 0.8798788 -0.397386 0.2605721 0.8751001 -0.2503982 0.4141262 0.4478396 0.8940578 -0.0100196 0.4820436 0.8620111 -0.1567514 0.2059809 0.971557 -0.1168286 -0.8806437 0.4411204 -0.1728566 -0.9097446 0.2435278 -0.3362425 -0.9333907 0.3588418 -0.003784298 -0.999997 -0.002444207 0 0 1 0 0.9916861 -3.05936e-4 0.1286805 0 -1 0 0 0.003153026 -0.9999951 0 0.00157988 0.9999988 0 -0.001656115 0.9999987 0.007501006 -3.9852e-4 0.9999718 -0.009555101 0.00374186 0.9999473 -0.01267409 -0.004752993 0.9999085 0.0343495 0.005265772 0.999396 -0.00845927 -0.002701282 0.9999606 0 -6.06409e-4 -0.9999998 -0.034388 -0.002606868 -0.9994052 -0.03116971 8.75794e-4 -0.9995138 -0.0313481 0.006053626 -0.9994902 0.005138635 1.79089e-5 -0.9999868 0.01050519 -0.005169034 -0.9999315 0.9502339 0.005430042 0.3114902 0.917374 0.002453207 0.3980187 0.9969943 7.64325e-4 0.07747048 0.9046291 -0.004009664 0.4261808 0.9043439 -0.002434849 0.4267977 0.9917218 -0.001908779 0.1283912 -0.9999513 0.009870409 0 -0.999819 -0.01901179 6.57921e-4 -0.9973186 -3.64139e-4 0.07318103 -0.9717462 0.02378261 -0.2348272 -0.9784907 0.002071499 -0.2062807 -0.9997977 -0.009124398 -0.01792597 -0.999997 -0.002444207 0 0 1 0 0.9916861 -3.05936e-4 0.1286805 0 -1 0 0 0.003153026 -0.9999951 0 0.00157988 0.9999988 0 -0.001656115 0.9999987 0.007501006 -3.9852e-4 0.9999718 -0.009555101 0.00374186 0.9999473 -0.01267409 -0.004752993 0.9999085 0.0343495 0.005265772 0.999396 -0.00845927 -0.002701282 0.9999606 0 -6.06409e-4 -0.9999998 -0.034388 -0.002606868 -0.9994052 -0.03116965 8.75805e-4 -0.9995138 -0.03134804 0.006053626 -0.9994902 0.005138695 1.78991e-5 -0.9999868 0.01050513 -0.005168974 -0.9999315 0.9502339 0.005430042 0.3114902 0.917374 0.002453207 0.3980187 0.9969943 7.64325e-4 0.07747048 0.9046291 -0.004009664 0.426181 0.9043438 -0.002434849 0.4267978 0.9917218 -0.001908779 0.1283912 -0.9999513 0.009870409 0 -0.999819 -0.01901179 6.57921e-4 -0.9973186 -3.64138e-4 0.07318103 -0.9717462 0.02378261 -0.2348272 -0.9784907 0.002071499 -0.2062806 -0.9997977 -0.009124398 -0.01792597 -0.8655276 0.4335486 0.2507938 0.4475462 0.8934723 -0.03754752 0.8810474 -0.4413226 -0.1702643 -0.4445878 -0.887566 0.1206989 0 -1.19209e-7 -1 -0.08222061 0.1641436 0.9830039 0.08222061 -0.1641436 0.9830039 -1.19209e-7 0 -1 0.4343662 -0.8671599 -0.2436385 -0.4377859 0.873987 -0.2109269 -1.19209e-7 0 -1 0.1641436 -0.08222067 0.9830039 -0.1641436 -0.08222061 0.9830039 0 1.19209e-7 -1 0.8665825 0.434077 -0.2461951 -0.8796314 -0.4406132 0.1791892 0 0 1 0 0 1 0 0 1 0 0 1 -0.1641436 0.08222067 0.9830039 -0.08222067 -0.1641436 0.9830039 0.08222067 0.1641436 0.9830039 0.1641436 0.08222061 0.9830039 -0.8121062 -0.4728445 0.3419086 -0.8112791 -0.3650728 -0.4566707 -0.7972717 -0.5397415 -0.2702534 0.7943963 0.6072435 -0.01377731 0.8822296 0.3537798 0.3106617 0.9128163 0.4081202 -0.01429194 -0.3370767 0.940661 0.03919529 -0.1436304 0.8880683 -0.436698 -0.155448 0.9812625 -0.1138407 0.2130005 -0.9649735 -0.1531566 0.3400383 -0.7069453 -0.6201632 0.322883 -0.6231212 0.712367 -0.4467485 -0.8397873 0.3085013 -0.3383468 -0.8505068 -0.4026906 -0.2885369 -0.9306677 0.2249536 0.9134383 -0.3879727 -0.1229135 0.9632388 -0.2676433 0.02320009 0.8957391 -0.342673 0.2832434 0.4794479 0.876065 0.05137997 0.1775553 0.9420585 0.2846051 0.3454536 0.9110396 0.225097 -0.9393025 0.1834943 0.2898976 -0.9220897 0.3375994 -0.1891486 -0.8830771 0.4112082 -0.2260146 -0.999861 -0.001750946 -0.01658284 0 1 0 0.9999875 0.00499016 0 0 -1 0 -0.02024757 -9.32593e-5 -0.999795 -0.007871568 0.002853631 0.999965 0.007506728 -4.50557e-4 0.9999718 -0.007721364 -0.002676367 0.9999666 -0.013264 0.003081858 0.9999073 0.03485381 0.00239551 0.9993896 -0.005056262 -0.001877963 0.9999855 -0.005028784 -0.003254294 0.999982 -0.01135504 0.001259088 -0.9999347 -0.01136481 0.001174688 -0.9999347 -0.03485697 2.46803e-4 -0.9993923 0.005043745 -0.001355886 -0.9999864 0.01133042 -0.001100599 -0.9999352 -0.02019679 -3.86713e-4 -0.9997959 0.9999698 -0.007776618 0 0.9488333 -0.001346349 0.3157745 0.9184414 0.0168963 0.395196 0.9942712 -0.02031904 0.1049379 0.9985956 0.01729631 -0.05007815 0.9991696 -0.008891046 -0.03976398 -0.9996047 0.008795678 -0.0267055 -0.9824079 -0.01102817 0.1864214 -0.9819986 -0.006069719 0.1887906 -0.9962782 0.009479761 0.08567386 -0.9996424 0.01199907 0.02389729 -0.9997228 -0.01052701 0.02105587 -0.999861 -0.001750946 -0.01658284 0 1 0 0.9999875 0.00499016 0 0 -1 0 -0.02024757 -9.32593e-5 -0.999795 -0.007871568 0.002853631 0.999965 0.007506728 -4.50557e-4 0.9999718 -0.007721364 -0.002676367 0.9999666 -0.013264 0.003081858 0.9999073 0.03485381 0.00239551 0.9993896 -0.005056142 -0.001877963 0.9999855 -0.005028665 -0.003254294 0.999982 -0.01135504 0.001259088 -0.9999347 -0.01136481 0.001174688 -0.9999347 -0.03485697 2.46803e-4 -0.9993923 0.005043804 -0.001355946 -0.9999864 0.01133036 -0.001100599 -0.9999352 -0.02019679 -3.86713e-4 -0.9997959 0.9999698 -0.007776618 0 0.9488333 -0.001346349 0.3157745 0.9184414 0.0168963 0.395196 0.9942712 -0.02031904 0.1049379 0.9985956 0.01729631 -0.05007815 0.9991696 -0.008891046 -0.03976404 -0.9996047 0.008795678 -0.0267055 -0.982408 -0.01102817 0.1864215 -0.9819986 -0.006069719 0.1887906 -0.9962782 0.009479761 0.08567386 -0.9996424 0.01199907 0.02389729 -0.9997228 -0.01052701 0.02105587</float_array>
          <technique_common>
            <accessor source="#Cube_018-mesh-normals-array" count="216" stride="3">
              <param name="X" type="float"/>
              <param name="Y" type="float"/>
              <param name="Z" type="float"/>
            </accessor>
          </technique_common>
        </source>
        <source id="Cube_018-mesh-map-0">
          <float_array id="Cube_018-mesh-map-0-array" count="1296">0.5625 0.125 0.625 0.25 0.5625 0.25 0.625 0.375 0.5625 0.5 0.5625 0.375 0.625 0.625 0.5625 0.75 0.5625 0.625 0.625 0.875 0.5625 1 0.5625 0.875 0.25 0.625 0.375 0.75 0.25 0.75 0.625 0.25 0.625 0.375 0.625 0.375 0.625 0.75 0.625 0.875 0.625 0.875 0.25 0.625 0.125 0.75 0.125 0.625 0.625 0.75 0.5625 0.875 0.5625 0.75 0.625 0.25 0.5625 0.375 0.5625 0.25 0.125 0.5 0.25 0.625 0.125 0.625 0.625 0.75 0.625 0.625 0.625 0.75 0.625 0 0.625 0.125 0.625 0.125 0.375 0.5 0.25 0.625 0.25 0.5 0.625 0.5 0.5625 0.625 0.5625 0.5 0.625 0 0.5625 0.125 0.5625 0 0.75 0.625 0.875 0.75 0.75 0.75 0.75 0.625 0.625 0.75 0.625 0.625 0.625 0.5 0.75 0.625 0.625 0.625 0.875 0.5 0.75 0.625 0.75 0.5 0.625 0.25 0.625 0.125 0.625 0.25 0.625 1 0.625 0.875 0.625 1 0.625 0.5 0.625 0.375 0.625 0.5 0.625 0.5 0.625 0.625 0.625 0.625 0.375 0 0.4375 0.125 0.375 0.125 0.4375 0 0.5 0.125 0.4375 0.125 0.5625 0 0.5 0.125 0.5 0 0.375 0.5 0.4375 0.625 0.375 0.625 0.4375 0.5 0.5 0.625 0.4375 0.625 0.5 0.5 0.5625 0.625 0.5 0.625 0.375 0.25 0.4375 0.375 0.375 0.375 0.4375 0.25 0.5 0.375 0.4375 0.375 0.5625 0.25 0.5 0.375 0.5 0.25 0.375 0.75 0.4375 0.875 0.375 0.875 0.5 0.75 0.4375 0.875 0.4375 0.75 0.5 0.75 0.5625 0.875 0.5 0.875 0.4375 0.875 0.375 1 0.375 0.875 0.4375 0.875 0.5 1 0.4375 1 0.5625 0.875 0.5 1 0.5 0.875 0.375 0.625 0.4375 0.75 0.375 0.75 0.5 0.625 0.4375 0.75 0.4375 0.625 0.5 0.625 0.5625 0.75 0.5 0.75 0.4375 0.375 0.375 0.5 0.375 0.375 0.4375 0.375 0.5 0.5 0.4375 0.5 0.5625 0.375 0.5 0.5 0.5 0.375 0.375 0.125 0.4375 0.25 0.375 0.25 0.5 0.125 0.4375 0.25 0.4375 0.125 0.5 0.125 0.5625 0.25 0.5 0.25 0.375 0.2142857 0.625 0.25 0.375 0.25 0.625 0.25 0.375 0.5 0.375 0.25 0.625 0.7142857 0.375 0.75 0.375 0.7142857 0.625 0.75 0.375 1 0.375 0.75 0.125 0.7142857 0.375 0.75 0.125 0.75 0.625 0.7142857 0.875 0.75 0.625 0.75 0.875 0.5 0.625 0.5357143 0.625 0.5 0.875 0.5357143 0.625 0.5714285 0.625 0.5357143 0.875 0.5714285 0.625 0.6071428 0.625 0.5714285 0.875 0.6071429 0.625 0.6428571 0.625 0.6071428 0.875 0.6428571 0.625 0.6785714 0.625 0.6428571 0.625 0.6785714 0.875 0.7142857 0.625 0.7142857 0.375 0.5 0.125 0.5357143 0.125 0.5 0.125 0.5357143 0.375 0.5714285 0.125 0.5714285 0.125 0.5714285 0.375 0.6071429 0.125 0.6071428 0.375 0.6071429 0.125 0.6428571 0.125 0.6071428 0.375 0.6428571 0.125 0.6785714 0.125 0.6428571 0.375 0.6785714 0.125 0.7142857 0.125 0.6785714 0.375 0.5 0.625 0.5357143 0.375 0.5357143 0.375 0.5357143 0.625 0.5714285 0.375 0.5714285 0.375 0.5714285 0.625 0.6071428 0.375 0.6071429 0.375 0.6071429 0.625 0.6428571 0.375 0.6428571 0.625 0.6428571 0.375 0.6785714 0.375 0.6428571 0.375 0.6785714 0.625 0.7142857 0.375 0.7142857 0.625 0 0.375 0.03571426 0.375 0 0.625 0.03571426 0.375 0.07142853 0.375 0.03571426 0.375 0.07142853 0.625 0.1071428 0.375 0.1071428 0.375 0.1071428 0.625 0.1428571 0.375 0.1428571 0.625 0.1428571 0.375 0.1785714 0.375 0.1428571 0.375 0.1785714 0.625 0.2142857 0.375 0.2142857 0.375 0.2142857 0.625 0.25 0.375 0.25 0.625 0.25 0.375 0.5 0.375 0.25 0.625 0.7142857 0.375 0.75 0.375 0.7142857 0.625 0.75 0.375 1 0.375 0.75 0.125 0.7142857 0.375 0.75 0.125 0.75 0.625 0.7142857 0.875 0.75 0.625 0.75 0.875 0.5 0.625 0.5357143 0.625 0.5 0.875 0.5357143 0.625 0.5714285 0.625 0.5357143 0.875 0.5714285 0.625 0.6071428 0.625 0.5714285 0.875 0.6071429 0.625 0.6428571 0.625 0.6071428 0.875 0.6428571 0.625 0.6785714 0.625 0.6428571 0.625 0.6785714 0.875 0.7142857 0.625 0.7142857 0.375 0.5 0.125 0.5357143 0.125 0.5 0.125 0.5357143 0.375 0.5714285 0.125 0.5714285 0.125 0.5714285 0.375 0.6071429 0.125 0.6071428 0.375 0.6071429 0.125 0.6428571 0.125 0.6071428 0.375 0.6428571 0.125 0.6785714 0.125 0.6428571 0.375 0.6785714 0.125 0.7142857 0.125 0.6785714 0.375 0.5 0.625 0.5357143 0.375 0.5357143 0.375 0.5357143 0.625 0.5714285 0.375 0.5714285 0.375 0.5714285 0.625 0.6071428 0.375 0.6071429 0.375 0.6071429 0.625 0.6428571 0.375 0.6428571 0.625 0.6428571 0.375 0.6785714 0.375 0.6428571 0.375 0.6785714 0.625 0.7142857 0.375 0.7142857 0.625 0 0.375 0.03571426 0.375 0 0.625 0.03571426 0.375 0.07142853 0.375 0.03571426 0.375 0.07142853 0.625 0.1071428 0.375 0.1071428 0.375 0.1071428 0.625 0.1428571 0.375 0.1428571 0.625 0.1428571 0.375 0.1785714 0.375 0.1428571 0.375 0.1785714 0.625 0.2142857 0.375 0.2142857 0.5625 0.125 0.625 0.125 0.625 0.25 0.625 0.375 0.625 0.5 0.5625 0.5 0.625 0.625 0.625 0.75 0.5625 0.75 0.625 0.875 0.625 1 0.5625 1 0.25 0.625 0.375 0.625 0.375 0.75 0.625 0.25 0.625 0.25 0.625 0.375 0.625 0.75 0.625 0.75 0.625 0.875 0.25 0.625 0.25 0.75 0.125 0.75 0.625 0.75 0.625 0.875 0.5625 0.875 0.625 0.25 0.625 0.375 0.5625 0.375 0.125 0.5 0.25 0.5 0.25 0.625 0.625 0.75 0.625 0.625 0.625 0.625 0.625 0 0.625 0 0.625 0.125 0.375 0.5 0.375 0.625 0.25 0.625 0.625 0.5 0.625 0.625 0.5625 0.625 0.625 0 0.625 0.125 0.5625 0.125 0.75 0.625 0.875 0.625 0.875 0.75 0.75 0.625 0.75 0.75 0.625 0.75 0.625 0.5 0.75 0.5 0.75 0.625 0.875 0.5 0.875 0.625 0.75 0.625 0.625 0.25 0.625 0.125 0.625 0.125 0.625 1 0.625 0.875 0.625 0.875 0.625 0.5 0.625 0.375 0.625 0.375 0.625 0.5 0.625 0.5 0.625 0.625 0.375 0 0.4375 0 0.4375 0.125 0.4375 0 0.5 0 0.5 0.125 0.5625 0 0.5625 0.125 0.5 0.125 0.375 0.5 0.4375 0.5 0.4375 0.625 0.4375 0.5 0.5 0.5 0.5 0.625 0.5 0.5 0.5625 0.5 0.5625 0.625 0.375 0.25 0.4375 0.25 0.4375 0.375 0.4375 0.25 0.5 0.25 0.5 0.375 0.5625 0.25 0.5625 0.375 0.5 0.375 0.375 0.75 0.4375 0.75 0.4375 0.875 0.5 0.75 0.5 0.875 0.4375 0.875 0.5 0.75 0.5625 0.75 0.5625 0.875 0.4375 0.875 0.4375 1 0.375 1 0.4375 0.875 0.5 0.875 0.5 1 0.5625 0.875 0.5625 1 0.5 1 0.375 0.625 0.4375 0.625 0.4375 0.75 0.5 0.625 0.5 0.75 0.4375 0.75 0.5 0.625 0.5625 0.625 0.5625 0.75 0.4375 0.375 0.4375 0.5 0.375 0.5 0.4375 0.375 0.5 0.375 0.5 0.5 0.5625 0.375 0.5625 0.5 0.5 0.5 0.375 0.125 0.4375 0.125 0.4375 0.25 0.5 0.125 0.5 0.25 0.4375 0.25 0.5 0.125 0.5625 0.125 0.5625 0.25 0.375 0.2142857 0.625 0.2142857 0.625 0.25 0.625 0.25 0.625 0.5 0.375 0.5 0.625 0.7142857 0.625 0.75 0.375 0.75 0.625 0.75 0.625 1 0.375 1 0.125 0.7142857 0.375 0.7142857 0.375 0.75 0.625 0.7142857 0.875 0.7142857 0.875 0.75 0.875 0.5 0.875 0.5357143 0.625 0.5357143 0.875 0.5357143 0.875 0.5714285 0.625 0.5714285 0.875 0.5714285 0.875 0.6071429 0.625 0.6071428 0.875 0.6071429 0.875 0.6428571 0.625 0.6428571 0.875 0.6428571 0.875 0.6785714 0.625 0.6785714 0.625 0.6785714 0.875 0.6785714 0.875 0.7142857 0.375 0.5 0.375 0.5357143 0.125 0.5357143 0.125 0.5357143 0.375 0.5357143 0.375 0.5714285 0.125 0.5714285 0.375 0.5714285 0.375 0.6071429 0.375 0.6071429 0.375 0.6428571 0.125 0.6428571 0.375 0.6428571 0.375 0.6785714 0.125 0.6785714 0.375 0.6785714 0.375 0.7142857 0.125 0.7142857 0.375 0.5 0.625 0.5 0.625 0.5357143 0.375 0.5357143 0.625 0.5357143 0.625 0.5714285 0.375 0.5714285 0.625 0.5714285 0.625 0.6071428 0.375 0.6071429 0.625 0.6071428 0.625 0.6428571 0.625 0.6428571 0.625 0.6785714 0.375 0.6785714 0.375 0.6785714 0.625 0.6785714 0.625 0.7142857 0.625 0 0.625 0.03571426 0.375 0.03571426 0.625 0.03571426 0.625 0.07142853 0.375 0.07142853 0.375 0.07142853 0.625 0.07142853 0.625 0.1071428 0.375 0.1071428 0.625 0.1071428 0.625 0.1428571 0.625 0.1428571 0.625 0.1785714 0.375 0.1785714 0.375 0.1785714 0.625 0.1785714 0.625 0.2142857 0.375 0.2142857 0.625 0.2142857 0.625 0.25 0.625 0.25 0.625 0.5 0.375 0.5 0.625 0.7142857 0.625 0.75 0.375 0.75 0.625 0.75 0.625 1 0.375 1 0.125 0.7142857 0.375 0.7142857 0.375 0.75 0.625 0.7142857 0.875 0.7142857 0.875 0.75 0.875 0.5 0.875 0.5357143 0.625 0.5357143 0.875 0.5357143 0.875 0.5714285 0.625 0.5714285 0.875 0.5714285 0.875 0.6071429 0.625 0.6071428 0.875 0.6071429 0.875 0.6428571 0.625 0.6428571 0.875 0.6428571 0.875 0.6785714 0.625 0.6785714 0.625 0.6785714 0.875 0.6785714 0.875 0.7142857 0.375 0.5 0.375 0.5357143 0.125 0.5357143 0.125 0.5357143 0.375 0.5357143 0.375 0.5714285 0.125 0.5714285 0.375 0.5714285 0.375 0.6071429 0.375 0.6071429 0.375 0.6428571 0.125 0.6428571 0.375 0.6428571 0.375 0.6785714 0.125 0.6785714 0.375 0.6785714 0.375 0.7142857 0.125 0.7142857 0.375 0.5 0.625 0.5 0.625 0.5357143 0.375 0.5357143 0.625 0.5357143 0.625 0.5714285 0.375 0.5714285 0.625 0.5714285 0.625 0.6071428 0.375 0.6071429 0.625 0.6071428 0.625 0.6428571 0.625 0.6428571 0.625 0.6785714 0.375 0.6785714 0.375 0.6785714 0.625 0.6785714 0.625 0.7142857 0.625 0 0.625 0.03571426 0.375 0.03571426 0.625 0.03571426 0.625 0.07142853 0.375 0.07142853 0.375 0.07142853 0.625 0.07142853 0.625 0.1071428 0.375 0.1071428 0.625 0.1071428 0.625 0.1428571 0.625 0.1428571 0.625 0.1785714 0.375 0.1785714 0.375 0.1785714 0.625 0.1785714 0.625 0.2142857</float_array>
          <technique_common>
            <accessor source="#Cube_018-mesh-map-0-array" count="648" stride="2">
              <param name="S" type="float"/>
              <param name="T" type="float"/>
            </accessor>
          </technique_common>
        </source>
        <vertices id="Cube_018-mesh-vertices">
          <input semantic="POSITION" source="#Cube_018-mesh-positions"/>
        </vertices>
        <triangles material="WoodBright2_009-material" count="96">
          <input semantic="VERTEX" source="#Cube_018-mesh-vertices" offset="0"/>
          <input semantic="NORMAL" source="#Cube_018-mesh-normals" offset="1"/>
          <input semantic="TEXCOORD" source="#Cube_018-mesh-map-0" offset="2" set="0"/>
          <p>47 0 0 3 0 1 29 0 2 9 1 3 32 1 4 41 1 5 15 2 6 35 2 7 44 2 8 11 3 9 28 3 10 38 3 11 16 4 12 4 4 13 10 4 14 3 5 15 19 5 16 9 5 17 5 6 18 23 6 19 11 6 20 16 7 21 0 7 22 12 7 23 5 8 24 38 8 25 35 8 26 3 9 27 41 9 28 29 9 29 2 10 30 16 10 31 12 10 32 5 11 33 21 11 34 22 11 35 1 12 36 17 12 37 13 12 38 6 13 39 16 13 40 8 13 41 7 14 42 44 14 43 32 14 44 1 15 45 47 15 46 28 15 47 25 16 48 24 16 49 23 16 50 25 17 51 22 17 52 21 17 53 20 18 54 25 18 55 21 18 56 18 19 57 25 19 58 19 19 59 3 20 60 17 20 61 18 20 62 1 21 63 23 21 64 24 21 65 7 22 66 19 22 67 20 22 68 7 23 69 21 23 70 15 23 71 0 24 72 49 24 73 12 24 74 26 25 75 48 25 76 49 25 77 28 26 78 48 26 79 27 26 80 6 27 81 46 27 82 14 27 83 34 28 84 45 28 85 46 28 86 33 29 87 44 29 88 45 29 89 2 30 90 43 30 91 8 30 92 31 31 93 42 31 94 43 31 95 29 32 96 42 32 97 30 32 98 4 33 99 40 33 100 10 33 101 36 34 102 40 34 103 37 34 104 36 35 105 38 35 106 39 35 107 40 36 108 0 36 109 10 36 110 40 37 111 27 37 112 26 37 113 38 38 114 27 38 115 39 38 116 14 39 117 37 39 118 4 39 119 45 40 120 37 40 121 46 40 122 45 41 123 35 41 124 36 41 125 43 42 126 6 42 127 8 42 128 43 43 129 33 43 130 34 43 131 41 44 132 33 44 133 42 44 134 12 45 135 31 45 136 2 45 137 48 46 138 31 46 139 49 46 140 48 47 141 29 47 142 30 47 143 47 108 324 13 108 325 3 108 326 9 109 327 7 109 328 32 109 329 15 110 330 5 110 331 35 110 332 11 111 333 1 111 334 28 111 335 16 112 336 14 112 337 4 112 338 3 113 339 18 113 340 19 113 341 5 114 342 22 114 343 23 114 344 16 115 345 10 115 346 0 115 347 5 116 348 11 116 349 38 116 350 3 117 351 9 117 352 41 117 353 2 118 354 8 118 355 16 118 356 5 119 357 15 119 358 21 119 359 1 120 360 24 120 361 17 120 362 6 121 363 14 121 364 16 121 365 7 122 366 15 122 367 44 122 368 1 123 369 13 123 370 47 123 371 25 124 372 17 124 373 24 124 374 25 125 375 23 125 376 22 125 377 20 126 378 19 126 379 25 126 380 18 127 381 17 127 382 25 127 383 3 128 384 13 128 385 17 128 386 1 129 387 11 129 388 23 129 389 7 130 390 9 130 391 19 130 392 7 131 393 20 131 394 21 131 395 0 132 396 26 132 397 49 132 398 26 133 399 27 133 400 48 133 401 28 134 402 47 134 403 48 134 404 6 135 405 34 135 406 46 135 407 34 136 408 33 136 409 45 136 410 33 137 411 32 137 412 44 137 413 2 138 414 31 138 415 43 138 416 31 139 417 30 139 418 42 139 419 29 140 420 41 140 421 42 140 422 4 141 423 37 141 424 40 141 425 36 142 426 39 142 427 40 142 428 36 143 429 35 143 430 38 143 431 40 144 432 26 144 433 0 144 434 40 145 435 39 145 436 27 145 437 38 146 438 28 146 439 27 146 440 14 147 441 46 147 442 37 147 443 45 148 444 36 148 445 37 148 446 45 149 447 44 149 448 35 149 449 43 150 450 34 150 451 6 150 452 43 151 453 42 151 454 33 151 455 41 152 456 32 152 457 33 152 458 12 153 459 49 153 460 31 153 461 48 154 462 30 154 463 31 154 464 48 155 465 47 155 466 29 155 467</p>
        </triangles>
        <triangles material="WoodBright_010-material" count="120">
          <input semantic="VERTEX" source="#Cube_018-mesh-vertices" offset="0"/>
          <input semantic="NORMAL" source="#Cube_018-mesh-normals" offset="1"/>
          <input semantic="TEXCOORD" source="#Cube_018-mesh-map-0" offset="2" set="0"/>
          <p>58 48 144 53 48 145 52 48 146 53 49 147 56 49 148 52 49 149 81 50 150 54 50 151 70 50 152 55 51 153 50 51 154 54 51 155 63 52 156 54 52 157 50 52 158 81 53 159 51 53 160 55 53 161 53 54 162 76 54 163 57 54 164 69 55 165 77 55 166 76 55 167 68 56 168 78 56 169 77 56 170 67 57 171 79 57 172 78 57 173 66 58 174 80 58 175 79 58 176 80 59 177 64 59 178 81 59 179 56 60 180 58 60 181 52 60 182 58 61 183 74 61 184 59 61 185 59 62 186 73 62 187 60 62 188 73 63 189 61 63 190 60 63 191 72 64 192 62 64 193 61 64 194 71 65 195 63 65 196 62 65 197 56 66 198 76 66 199 75 66 200 75 67 201 77 67 202 74 67 203 74 68 204 78 68 205 73 68 206 73 69 207 79 69 208 72 69 209 79 70 210 71 70 211 72 70 212 71 71 213 81 71 214 70 71 215 51 72 216 63 72 217 50 72 218 64 73 219 62 73 220 63 73 221 62 74 222 66 74 223 61 74 224 61 75 225 67 75 226 60 75 227 67 76 228 59 76 229 60 76 230 59 77 231 69 77 232 58 77 233 90 78 234 85 78 235 84 78 236 85 79 237 88 79 238 84 79 239 113 80 240 86 80 241 102 80 242 87 81 243 82 81 244 86 81 245 95 82 246 86 82 247 82 82 248 113 83 249 83 83 250 87 83 251 85 84 252 108 84 253 89 84 254 101 85 255 109 85 256 108 85 257 100 86 258 110 86 259 109 86 260 99 87 261 111 87 262 110 87 263 98 88 264 112 88 265 111 88 266 112 89 267 96 89 268 113 89 269 88 90 270 90 90 271 84 90 272 90 91 273 106 91 274 91 91 275 91 92 276 105 92 277 92 92 278 105 93 279 93 93 280 92 93 281 104 94 282 94 94 283 93 94 284 103 95 285 95 95 286 94 95 287 88 96 288 108 96 289 107 96 290 107 97 291 109 97 292 106 97 293 106 98 294 110 98 295 105 98 296 105 99 297 111 99 298 104 99 299 111 100 300 103 100 301 104 100 302 103 101 303 113 101 304 102 101 305 83 102 306 95 102 307 82 102 308 96 103 309 94 103 310 95 103 311 94 104 312 98 104 313 93 104 314 93 105 315 99 105 316 92 105 317 99 106 318 91 106 319 92 106 320 91 107 321 101 107 322 90 107 323 58 156 468 69 156 469 53 156 470 53 157 471 57 157 472 56 157 473 81 158 474 55 158 475 54 158 476 55 159 477 51 159 478 50 159 479 63 160 480 70 160 481 54 160 482 81 161 483 64 161 484 51 161 485 53 162 486 69 162 487 76 162 488 69 163 489 68 163 490 77 163 491 68 164 492 67 164 493 78 164 494 67 165 495 66 165 496 79 165 497 66 166 498 65 166 499 80 166 500 80 167 501 65 167 502 64 167 503 56 168 504 75 168 505 58 168 506 58 169 507 75 169 508 74 169 509 59 170 510 74 170 511 73 170 512 73 171 513 72 171 514 61 171 515 72 172 516 71 172 517 62 172 518 71 173 519 70 173 520 63 173 521 56 174 522 57 174 523 76 174 524 75 175 525 76 175 526 77 175 527 74 176 528 77 176 529 78 176 530 73 177 531 78 177 532 79 177 533 79 178 534 80 178 535 71 178 536 71 179 537 80 179 538 81 179 539 51 180 540 64 180 541 63 180 542 64 181 543 65 181 544 62 181 545 62 182 546 65 182 547 66 182 548 61 183 549 66 183 550 67 183 551 67 184 552 68 184 553 59 184 554 59 185 555 68 185 556 69 185 557 90 186 558 101 186 559 85 186 560 85 187 561 89 187 562 88 187 563 113 188 564 87 188 565 86 188 566 87 189 567 83 189 568 82 189 569 95 190 570 102 190 571 86 190 572 113 191 573 96 191 574 83 191 575 85 192 576 101 192 577 108 192 578 101 193 579 100 193 580 109 193 581 100 194 582 99 194 583 110 194 584 99 195 585 98 195 586 111 195 587 98 196 588 97 196 589 112 196 590 112 197 591 97 197 592 96 197 593 88 198 594 107 198 595 90 198 596 90 199 597 107 199 598 106 199 599 91 200 600 106 200 601 105 200 602 105 201 603 104 201 604 93 201 605 104 202 606 103 202 607 94 202 608 103 203 609 102 203 610 95 203 611 88 204 612 89 204 613 108 204 614 107 205 615 108 205 616 109 205 617 106 206 618 109 206 619 110 206 620 105 207 621 110 207 622 111 207 623 111 208 624 112 208 625 103 208 626 103 209 627 112 209 628 113 209 629 83 210 630 96 210 631 95 210 632 96 211 633 97 211 634 94 211 635 94 212 636 97 212 637 98 212 638 93 213 639 98 213 640 99 213 641 99 214 642 100 214 643 91 214 644 91 215 645 100 215 646 101 215 647</p>
        </triangles>
      </mesh>
    </geometry>
    <geometry id="Cube_017-mesh" name="Cube.017">
      <mesh>
        <source id="Cube_017-mesh-positions">
          <float_array id="Cube_017-mesh-positions-array" count="174">-1 -1 0 -1 -1 2 -1 1 0 -1 1 2 1 -1 0 1 -1 2 1 1 0 1 1 2 0 1.500907 -1.19209e-7 0 1.500907 2 0 -1.500907 -1.19209e-7 0 -1.500907 2 -1.500907 0 -1.19209e-7 -1.500907 0 2 1.500907 0 -1.19209e-7 1.500907 0 2 0 0 -1.19209e-7 -1.177244 0 2.054046 -0.7843555 0.7843555 2.054046 0 1.177244 2.054046 0.7843555 0.7843555 2.054046 1.177244 0 2.054046 0.7843555 -0.7843555 2.054046 0 -1.177244 2.054046 -0.7843555 -0.7843555 2.054046 0 0 2.054046 -0.836207 -0.8866106 0.5458558 -0.9493173 -1.22151 1.014523 -0.8441517 -1.15801 1.412126 -1.138697 1.181789 1.422791 -1.158925 1.124408 0.9707663 -1.147942 0.9236949 0.5589842 0.8779485 1.034774 1.372691 0.8228804 1.145244 1.010097 1.061433 0.9326727 0.5747205 0.9866304 -0.7949211 1.399257 1.055978 -1.221128 0.995013 1.117666 -1.046039 0.4537137 -0.1226511 -1.388855 1.382518 0.1642292 -1.661365 1.007904 -0.07887327 -1.314133 0.4787884 0.01877486 1.359729 1.376056 0.01407635 1.3113 0.9650279 0.1986517 1.407362 0.5319074 1.304641 0.08333915 1.456103 1.348068 -0.1682261 1.014421 1.644116 0.1693826 0.529619 -1.653595 0.05315405 1.38116 -1.562359 0.07603329 1.066312 -1.367614 -0.03864723 0.4563462 -0.4921012 0 1.689627 -0.4921012 0 1.939882 0.4921012 0 1.689627 0.4921012 0 1.939882 -0.4921012 0 0.8748789 -0.4921012 0 1.125134 0.4921012 0 0.8748789 0.4921012 0 1.125134</float_array>
          <technique_common>
            <accessor source="#Cube_017-mesh-positions-array" count="58" stride="3">
              <param name="X" type="float"/>
              <param name="Y" type="float"/>
              <param name="Z" type="float"/>
            </accessor>
          </technique_common>
        </source>
        <source id="Cube_017-mesh-normals">
          <float_array id="Cube_017-mesh-normals-array" count="300">-0.8639911 0.3820679 0.3279381 0.3461442 0.9172384 -0.1971242 0.8830409 -0.2961794 -0.3640285 -0.3069784 -0.9452729 -0.1105593 1.19209e-7 0 -1 -0.08222067 0.1641436 0.9830039 0.08222067 -0.1641436 0.9830039 0 -1.19209e-7 -1 0.4542211 -0.8399761 -0.2968557 -0.1307494 0.9361919 0.3262659 0 1.19209e-7 -1 0.1641436 -0.08222061 0.9830039 -0.1641436 -0.08222067 0.9830039 1.19209e-7 0 -1 0.9064643 0.3929724 -0.154581 -0.828525 -0.5555173 -0.07033336 0 0 1 0 0 1 0 0 1 0 0 1 -0.1641436 0.08222061 0.9830039 -0.08222061 -0.1641436 0.9830039 0.08222061 0.1641436 0.9830039 0.1641436 0.08222067 0.9830039 -0.8726254 -0.4371039 0.2178646 -0.828082 -0.5362138 -0.1635695 -0.859591 -0.4178637 0.2940978 0.8343988 0.4179559 -0.3592931 0.6095225 0.4257861 0.6687216 0.9220511 0.3682876 -0.1191052 -0.4259938 0.8504455 0.3086613 -0.3361567 0.9395514 0.06512945 -0.1568144 0.9806179 -0.1174639 0.4125421 -0.8235907 0.3892395 0.2042911 -0.9379764 -0.2801172 0.3218331 -0.6312468 0.7056564 -0.4318301 -0.862097 0.2651629 -0.4357428 -0.679254 -0.5905441 -0.3395119 -0.8650748 0.369293 0.8615853 -0.4315739 -0.2672353 0.8798788 -0.397386 0.2605721 0.8751001 -0.2503982 0.4141262 0.4478396 0.8940578 -0.0100196 0.4820436 0.8620111 -0.1567514 0.2059809 0.971557 -0.1168286 -0.8806437 0.4411204 -0.1728566 -0.9097446 0.2435278 -0.3362425 -0.9333907 0.3588418 -0.003784298 0 -1 0 0 -1 0 -0.8655276 0.4335486 0.2507938 0.4475462 0.8934723 -0.03754752 0.8810474 -0.4413226 -0.1702643 -0.4445878 -0.887566 0.1206989 0 -1.19209e-7 -1 -0.08222061 0.1641436 0.9830039 0.08222061 -0.1641436 0.9830039 -1.19209e-7 0 -1 0.4343662 -0.8671599 -0.2436385 -0.4377859 0.873987 -0.2109269 -1.19209e-7 0 -1 0.1641436 -0.08222067 0.9830039 -0.1641436 -0.08222061 0.9830039 0 1.19209e-7 -1 0.8665825 0.434077 -0.2461951 -0.8796314 -0.4406132 0.1791892 0 0 1 0 0 1 0 0 1 0 0 1 -0.1641436 0.08222067 0.9830039 -0.08222067 -0.1641436 0.9830039 0.08222067 0.1641436 0.9830039 0.1641436 0.08222061 0.9830039 -0.8121062 -0.4728445 0.3419086 -0.8112791 -0.3650728 -0.4566707 -0.7972717 -0.5397415 -0.2702534 0.7943963 0.6072435 -0.01377731 0.8822296 0.3537798 0.3106617 0.9128163 0.4081202 -0.01429194 -0.3370767 0.940661 0.03919529 -0.1436304 0.8880683 -0.436698 -0.155448 0.9812625 -0.1138407 0.2130005 -0.9649735 -0.1531566 0.3400383 -0.7069453 -0.6201632 0.322883 -0.6231212 0.712367 -0.4467485 -0.8397873 0.3085013 -0.3383468 -0.8505068 -0.4026906 -0.2885369 -0.9306677 0.2249536 0.9134383 -0.3879727 -0.1229135 0.9632388 -0.2676433 0.02320009 0.8957391 -0.342673 0.2832434 0.4794479 0.876065 0.05137997 0.1775553 0.9420585 0.2846051 0.3454536 0.9110396 0.225097 -0.9393025 0.1834943 0.2898976 -0.9220897 0.3375994 -0.1891486 -0.8830771 0.4112082 -0.2260146 0 -1 0 0 -1 0</float_array>
          <technique_common>
            <accessor source="#Cube_017-mesh-normals-array" count="100" stride="3">
              <param name="X" type="float"/>
              <param name="Y" type="float"/>
              <param name="Z" type="float"/>
            </accessor>
          </technique_common>
        </source>
        <source id="Cube_017-mesh-map-0">
          <float_array id="Cube_017-mesh-map-0-array" count="600">0.5625 0.125 0.625 0.25 0.5625 0.25 0.625 0.375 0.5625 0.5 0.5625 0.375 0.625 0.625 0.5625 0.75 0.5625 0.625 0.625 0.875 0.5625 1 0.5625 0.875 0.25 0.625 0.375 0.75 0.25 0.75 0.625 0.25 0.625 0.375 0.625 0.375 0.625 0.75 0.625 0.875 0.625 0.875 0.25 0.625 0.125 0.75 0.125 0.625 0.625 0.75 0.5625 0.875 0.5625 0.75 0.625 0.25 0.5625 0.375 0.5625 0.25 0.125 0.5 0.25 0.625 0.125 0.625 0.625 0.75 0.625 0.625 0.625 0.75 0.625 0 0.625 0.125 0.625 0.125 0.375 0.5 0.25 0.625 0.25 0.5 0.625 0.5 0.5625 0.625 0.5625 0.5 0.625 0 0.5625 0.125 0.5625 0 0.75 0.625 0.875 0.75 0.75 0.75 0.75 0.625 0.625 0.75 0.625 0.625 0.625 0.5 0.75 0.625 0.625 0.625 0.875 0.5 0.75 0.625 0.75 0.5 0.625 0.25 0.625 0.125 0.625 0.25 0.625 1 0.625 0.875 0.625 1 0.625 0.5 0.625 0.375 0.625 0.5 0.625 0.5 0.625 0.625 0.625 0.625 0.375 0 0.4375 0.125 0.375 0.125 0.4375 0 0.5 0.125 0.4375 0.125 0.5625 0 0.5 0.125 0.5 0 0.375 0.5 0.4375 0.625 0.375 0.625 0.4375 0.5 0.5 0.625 0.4375 0.625 0.5 0.5 0.5625 0.625 0.5 0.625 0.375 0.25 0.4375 0.375 0.375 0.375 0.4375 0.25 0.5 0.375 0.4375 0.375 0.5625 0.25 0.5 0.375 0.5 0.25 0.375 0.75 0.4375 0.875 0.375 0.875 0.5 0.75 0.4375 0.875 0.4375 0.75 0.5 0.75 0.5625 0.875 0.5 0.875 0.4375 0.875 0.375 1 0.375 0.875 0.4375 0.875 0.5 1 0.4375 1 0.5625 0.875 0.5 1 0.5 0.875 0.375 0.625 0.4375 0.75 0.375 0.75 0.5 0.625 0.4375 0.75 0.4375 0.625 0.5 0.625 0.5625 0.75 0.5 0.75 0.4375 0.375 0.375 0.5 0.375 0.375 0.4375 0.375 0.5 0.5 0.4375 0.5 0.5625 0.375 0.5 0.5 0.5 0.375 0.375 0.125 0.4375 0.25 0.375 0.25 0.5 0.125 0.4375 0.25 0.4375 0.125 0.5 0.125 0.5625 0.25 0.5 0.25 0.625 0.75 0.375 1 0.375 0.75 0.625 0.75 0.375 1 0.375 0.75 0.5625 0.125 0.625 0.125 0.625 0.25 0.625 0.375 0.625 0.5 0.5625 0.5 0.625 0.625 0.625 0.75 0.5625 0.75 0.625 0.875 0.625 1 0.5625 1 0.25 0.625 0.375 0.625 0.375 0.75 0.625 0.25 0.625 0.25 0.625 0.375 0.625 0.75 0.625 0.75 0.625 0.875 0.25 0.625 0.25 0.75 0.125 0.75 0.625 0.75 0.625 0.875 0.5625 0.875 0.625 0.25 0.625 0.375 0.5625 0.375 0.125 0.5 0.25 0.5 0.25 0.625 0.625 0.75 0.625 0.625 0.625 0.625 0.625 0 0.625 0 0.625 0.125 0.375 0.5 0.375 0.625 0.25 0.625 0.625 0.5 0.625 0.625 0.5625 0.625 0.625 0 0.625 0.125 0.5625 0.125 0.75 0.625 0.875 0.625 0.875 0.75 0.75 0.625 0.75 0.75 0.625 0.75 0.625 0.5 0.75 0.5 0.75 0.625 0.875 0.5 0.875 0.625 0.75 0.625 0.625 0.25 0.625 0.125 0.625 0.125 0.625 1 0.625 0.875 0.625 0.875 0.625 0.5 0.625 0.375 0.625 0.375 0.625 0.5 0.625 0.5 0.625 0.625 0.375 0 0.4375 0 0.4375 0.125 0.4375 0 0.5 0 0.5 0.125 0.5625 0 0.5625 0.125 0.5 0.125 0.375 0.5 0.4375 0.5 0.4375 0.625 0.4375 0.5 0.5 0.5 0.5 0.625 0.5 0.5 0.5625 0.5 0.5625 0.625 0.375 0.25 0.4375 0.25 0.4375 0.375 0.4375 0.25 0.5 0.25 0.5 0.375 0.5625 0.25 0.5625 0.375 0.5 0.375 0.375 0.75 0.4375 0.75 0.4375 0.875 0.5 0.75 0.5 0.875 0.4375 0.875 0.5 0.75 0.5625 0.75 0.5625 0.875 0.4375 0.875 0.4375 1 0.375 1 0.4375 0.875 0.5 0.875 0.5 1 0.5625 0.875 0.5625 1 0.5 1 0.375 0.625 0.4375 0.625 0.4375 0.75 0.5 0.625 0.5 0.75 0.4375 0.75 0.5 0.625 0.5625 0.625 0.5625 0.75 0.4375 0.375 0.4375 0.5 0.375 0.5 0.4375 0.375 0.5 0.375 0.5 0.5 0.5625 0.375 0.5625 0.5 0.5 0.5 0.375 0.125 0.4375 0.125 0.4375 0.25 0.5 0.125 0.5 0.25 0.4375 0.25 0.5 0.125 0.5625 0.125 0.5625 0.25 0.625 0.75 0.625 1 0.375 1 0.625 0.75 0.625 1 0.375 1</float_array>
          <technique_common>
            <accessor source="#Cube_017-mesh-map-0-array" count="300" stride="2">
              <param name="S" type="float"/>
              <param name="T" type="float"/>
            </accessor>
          </technique_common>
        </source>
        <vertices id="Cube_017-mesh-vertices">
          <input semantic="POSITION" source="#Cube_017-mesh-positions"/>
        </vertices>
        <triangles material="WoodBright2_009-material" count="96">
          <input semantic="VERTEX" source="#Cube_017-mesh-vertices" offset="0"/>
          <input semantic="NORMAL" source="#Cube_017-mesh-normals" offset="1"/>
          <input semantic="TEXCOORD" source="#Cube_017-mesh-map-0" offset="2" set="0"/>
          <p>47 0 0 3 0 1 29 0 2 9 1 3 32 1 4 41 1 5 15 2 6 35 2 7 44 2 8 11 3 9 28 3 10 38 3 11 16 4 12 4 4 13 10 4 14 3 5 15 19 5 16 9 5 17 5 6 18 23 6 19 11 6 20 16 7 21 0 7 22 12 7 23 5 8 24 38 8 25 35 8 26 3 9 27 41 9 28 29 9 29 2 10 30 16 10 31 12 10 32 5 11 33 21 11 34 22 11 35 1 12 36 17 12 37 13 12 38 6 13 39 16 13 40 8 13 41 7 14 42 44 14 43 32 14 44 1 15 45 47 15 46 28 15 47 25 16 48 24 16 49 23 16 50 25 17 51 22 17 52 21 17 53 20 18 54 25 18 55 21 18 56 18 19 57 25 19 58 19 19 59 3 20 60 17 20 61 18 20 62 1 21 63 23 21 64 24 21 65 7 22 66 19 22 67 20 22 68 7 23 69 21 23 70 15 23 71 0 24 72 49 24 73 12 24 74 26 25 75 48 25 76 49 25 77 28 26 78 48 26 79 27 26 80 6 27 81 46 27 82 14 27 83 34 28 84 45 28 85 46 28 86 33 29 87 44 29 88 45 29 89 2 30 90 43 30 91 8 30 92 31 31 93 42 31 94 43 31 95 29 32 96 42 32 97 30 32 98 4 33 99 40 33 100 10 33 101 36 34 102 40 34 103 37 34 104 36 35 105 38 35 106 39 35 107 40 36 108 0 36 109 10 36 110 40 37 111 27 37 112 26 37 113 38 38 114 27 38 115 39 38 116 14 39 117 37 39 118 4 39 119 45 40 120 37 40 121 46 40 122 45 41 123 35 41 124 36 41 125 43 42 126 6 42 127 8 42 128 43 43 129 33 43 130 34 43 131 41 44 132 33 44 133 42 44 134 12 45 135 31 45 136 2 45 137 48 46 138 31 46 139 49 46 140 48 47 141 29 47 142 30 47 143 47 50 150 13 50 151 3 50 152 9 51 153 7 51 154 32 51 155 15 52 156 5 52 157 35 52 158 11 53 159 1 53 160 28 53 161 16 54 162 14 54 163 4 54 164 3 55 165 18 55 166 19 55 167 5 56 168 22 56 169 23 56 170 16 57 171 10 57 172 0 57 173 5 58 174 11 58 175 38 58 176 3 59 177 9 59 178 41 59 179 2 60 180 8 60 181 16 60 182 5 61 183 15 61 184 21 61 185 1 62 186 24 62 187 17 62 188 6 63 189 14 63 190 16 63 191 7 64 192 15 64 193 44 64 194 1 65 195 13 65 196 47 65 197 25 66 198 17 66 199 24 66 200 25 67 201 23 67 202 22 67 203 20 68 204 19 68 205 25 68 206 18 69 207 17 69 208 25 69 209 3 70 210 13 70 211 17 70 212 1 71 213 11 71 214 23 71 215 7 72 216 9 72 217 19 72 218 7 73 219 20 73 220 21 73 221 0 74 222 26 74 223 49 74 224 26 75 225 27 75 226 48 75 227 28 76 228 47 76 229 48 76 230 6 77 231 34 77 232 46 77 233 34 78 234 33 78 235 45 78 236 33 79 237 32 79 238 44 79 239 2 80 240 31 80 241 43 80 242 31 81 243 30 81 244 42 81 245 29 82 246 41 82 247 42 82 248 4 83 249 37 83 250 40 83 251 36 84 252 39 84 253 40 84 254 36 85 255 35 85 256 38 85 257 40 86 258 26 86 259 0 86 260 40 87 261 39 87 262 27 87 263 38 88 264 28 88 265 27 88 266 14 89 267 46 89 268 37 89 269 45 90 270 36 90 271 37 90 272 45 91 273 44 91 274 35 91 275 43 92 276 34 92 277 6 92 278 43 93 279 42 93 280 33 93 281 41 94 282 32 94 283 33 94 284 12 95 285 49 95 286 31 95 287 48 96 288 30 96 289 31 96 290 48 97 291 47 97 292 29 97 293</p>
        </triangles>
        <triangles material="WoodBright_010-material" count="4">
          <input semantic="VERTEX" source="#Cube_017-mesh-vertices" offset="0"/>
          <input semantic="NORMAL" source="#Cube_017-mesh-normals" offset="1"/>
          <input semantic="TEXCOORD" source="#Cube_017-mesh-map-0" offset="2" set="0"/>
          <p>53 48 144 50 48 145 52 48 146 57 49 147 54 49 148 56 49 149 53 98 294 51 98 295 50 98 296 57 99 297 55 99 298 54 99 299</p>
        </triangles>
      </mesh>
    </geometry>
  </library_geometries>
  <library_visual_scenes>
    <visual_scene id="Scene" name="Scene">
      <node id="Cube_118" name="Cube.118" type="NODE">
        <matrix sid="transform">-0.04663165 0.02293581 0 -0.4751966 -0.01553639 -0.06884063 0 1.365975 0 0 0.6392456 -2.98023e-8 0 0 0 1</matrix>
        <instance_geometry url="#Cube_018-mesh" name="Cube.118">
          <bind_material>
            <technique_common>
              <instance_material symbol="WoodBright2_009-material" target="#WoodBright2_009-material">
                <bind_vertex_input semantic="UVMap" input_semantic="TEXCOORD" input_set="0"/>
              </instance_material>
              <instance_material symbol="WoodBright_010-material" target="#WoodBright_010-material">
                <bind_vertex_input semantic="UVMap" input_semantic="TEXCOORD" input_set="0"/>
              </instance_material>
            </technique_common>
          </bind_material>
        </instance_geometry>
      </node>
      <node id="Cube_117" name="Cube.117" type="NODE">
        <matrix sid="transform">-0.02702073 0.06061265 0 0.490607 -0.04105813 -0.03988974 0 -1.516477 0 0 0.6392456 -2.98023e-8 0 0 0 1</matrix>
        <instance_geometry url="#Cube_017-mesh" name="Cube.117">
          <bind_material>
            <technique_common>
              <instance_material symbol="WoodBright2_009-material" target="#WoodBright2_009-material">
                <bind_vertex_input semantic="UVMap" input_semantic="TEXCOORD" input_set="0"/>
              </instance_material>
              <instance_material symbol="WoodBright_010-material" target="#WoodBright_010-material">
                <bind_vertex_input semantic="UVMap" input_semantic="TEXCOORD" input_set="0"/>
              </instance_material>
            </technique_common>
          </bind_material>
        </instance_geometry>
      </node>
    </visual_scene>
  </library_visual_scenes>
  <scene>
    <instance_visual_scene url="#Scene"/>
  </scene>
</COLLADA>