<?xml version="1.0" encoding="utf-8"?>
<COLLADA xmlns="http://www.collada.org/2005/11/COLLADASchema" version="1.4.1" xmlns:xsi="http://www.w3.org/2001/XMLSchema-instance">
  <asset>
    <contributor>
      <author>Blender User</author>
      <authoring_tool>Blender 4.4.0 commit date:2025-03-17, commit time:17:00, hash:05377985c527</authoring_tool>
    </contributor>
    <created>2026-08-23T10:57:20</created>
    <modified>2026-08-23T10:57:20</modified>
    <unit name="meter" meter="1"/>
    <up_axis>Z_UP</up_axis>
  </asset>
  <library_effects>
    <effect id="Material_001-effect">
      <profile_COMMON>
        <technique sid="common">
          <lambert>
            <emission>
              <color sid="emission">0 0 0 1</color>
            </emission>
            <diffuse>
              <color sid="diffuse">0.8962636 0.8962702 0.9046616 1</color>
            </diffuse>
            <index_of_refraction>
              <float sid="ior">1.5</float>
            </index_of_refraction>
          </lambert>
        </technique>
      </profile_COMMON>
    </effect>
    <effect id="Material-effect">
      <profile_COMMON>
        <technique sid="common">
          <lambert>
            <emission>
              <color sid="emission">0 0 0 1</color>
            </emission>
            <diffuse>
              <color sid="diffuse">0.06019804 0.06019804 0.06019804 1</color>
            </diffuse>
            <index_of_refraction>
              <float sid="ior">1.45</float>
            </index_of_refraction>
          </lambert>
        </technique>
      </profile_COMMON>
    </effect>
  </library_effects>
  <library_images/>
  <library_materials>
    <material id="Material_001-material" name="Material.001">
      <instance_effect url="#Material_001-effect"/>
    </material>
    <material id="Material-material" name="Material">
      <instance_effect url="#Material-effect"/>
    </material>
  </library_materials>
  <library_geometries>
    <geometry id="Cube_001-mesh" name="Cube.001">
      <mesh>
        <source id="Cube_001-mesh-positions">
          <float_array id="Cube_001-mesh-positions-array" count="216">-1 -1 -1 -1 -1 1 -1 1 -1 -1 1 1 1 -1 -1 1 -1 1 1 1 -1 1 1 1 -1 1 -1 -1 -1 -1 -1 -1 1 -1 1 1 1 1 -1 1 1 1 1 -1 -1 1 -1 1 -1 -1 -0.5 -1 -1 0 -1 -1 0.5 -1 1 0.5 -1 1 0 -1 1 -0.5 1 1 0.5 1 1 0 1 1 -0.5 1 -1 0.5 1 -1 0 1 -1 -0.5 -1 -1 0.5 -1 1 0.5 1 1 0.5 1 -1 0.5 -1 1 0 1 1 0 1 -1 0 -1 -1 0 -1 -1 0.5 -1 1 0.5 1 1 0.5 1 -1 0.5 -1 1 0.5 1 1 0.5 1 -1 0.5 -1 -1 0.5 -1 1 0.5 1 1 0.5 1 -1 0.5 -1 -1 0.5 -1 1 0 1 1 0 1 -1 0 -1 -1 0 -1 -1 0.5 -1 1 0.5 1 1 0.5 1 -1 0.5 -1 1 0.5 1 1 0.5 1 -1 0.5 -1 -1 0.5 -1 1 0.25 1 1 0.25 1 -1 0.25 -1 -1 0.25 -1 -5.276007 0.25 -1 -5.276007 0.5 1 -5.276007 0.5 -1 5.276007 0.5 1 5.276007 0.5 -1 5.276007 0.25 1 5.276007 0.25 1 -5.276007 0.25</float_array>
          <technique_common>
            <accessor source="#Cube_001-mesh-positions-array" count="72" stride="3">
              <param name="X" type="float"/>
              <param name="Y" type="float"/>
              <param name="Z" type="float"/>
            </accessor>
          </technique_common>
        </source>
        <source id="Cube_001-mesh-normals">
          <float_array id="Cube_001-mesh-normals-array" count="408">1 0 0 0 -1 0 -1 0 0 0 1 0 0 0 1 0 0 -1 -1 0 0 0 1 0 1 0 0 0 -1 0 0 0 -1 0 0 1 0 -1 0 0 -1 0 0 0 1 1 0 0 1 0 0 0 0 1 0 1 0 0 1 0 0 0 1 -1 0 0 -1 0 0 0 0 1 0 0 1 0 0 1 0 0 1 0 0 1 0 0 1 0 0 1 0 0 1 0 0 1 0 0 1 0 0 1 0 0 1 0 0 1 0 0 1 0 0 1 0 0 1 0 0 1 0 0 1 0 0 1 0 0 1 0 0 1 0 0 1 0 0 1 0 0 1 0 0 1 0 0 1 0 0 1 0 0 1 0 0 1 -1 0 0 1 0 0 1 0 0 -1 0 0 -1 0 0 0 1 0 1 0 0 0 -1 0 0 -1 0 0 1 0 0 0 1 0 0 -1 0 0 1 0 0 -1 1 0 0 -1 0 0 1 0 0 0 -1 0 -1 0 0 0 1 0 0 0 1 0 0 -1 -1 0 0 0 1 0 1 0 0 0 -1 0 0 0 -1 0 0 1 0 -1 0 0 -1 0 0 0 1 1 0 0 1 0 0 0 0 1 0 1 0 0 1 0 0 0 1 -1 0 0 -1 0 0 0 0 1 0 0 1 0 0 1 0 0 1 0 0 1 0 0 1 0 0 1 0 0 1 0 0 1 0 0 1 0 0 1 0 0 1 0 0 1 0 0 1 0 0 1 0 0 1 0 0 1 0 0 1 0 0 1 0 0 1 0 0 1 0 0 1 0 0 1 0 0 1 0 0 1 0 0 1 0 0 1 0 0 1 0 0 1 -1 0 0 1 0 0 1 0 0 -1 0 0 -1 0 0 0 1 0 1 0 0 0 -1 0 0 -1 0 0 1 0 0 0 1 0 0 -1 0 0 1 0 0 -1 1 0 0 -1 0 0</float_array>
          <technique_common>
            <accessor source="#Cube_001-mesh-normals-array" count="136" stride="3">
              <param name="X" type="float"/>
              <param name="Y" type="float"/>
              <param name="Z" type="float"/>
            </accessor>
          </technique_common>
        </source>
        <source id="Cube_001-mesh-map-0">
          <float_array id="Cube_001-mesh-map-0-array" count="816">0.375 0.25 0.625 0 0.375 0 0.375 0.5 0.625 0.25 0.375 0.25 0.375 0.75 0.625 0.5 0.375 0.5 0.375 1 0.625 0.75 0.375 0.75 0.125 0.75 0.375 0.5 0.125 0.5 0.625 0.75 0.875 0.5 0.625 0.5 0.625 0 0.5625 0.25 0.5625 0 0.625 0.25 0.5625 0.5 0.5625 0.25 0.625 0.5 0.5625 0.75 0.5625 0.5 0.625 0.75 0.5625 1 0.5625 0.75 0.375 0.5 0.125 0.75 0.125 0.5 0.875 0.5 0.625 0.75 0.625 0.5 0.4375 0.75 0.375 1 0.375 0.75 0.5 0.75 0.4375 1 0.4375 0.75 0.5625 0.75 0.5625 1 0.5625 0.75 0.4375 0.5 0.375 0.75 0.375 0.5 0.5 0.5 0.4375 0.75 0.4375 0.5 0.5625 0.5 0.5625 0.75 0.5625 0.5 0.4375 0.25 0.375 0.5 0.375 0.25 0.5 0.25 0.4375 0.5 0.4375 0.25 0.5625 0.25 0.5625 0.5 0.5625 0.25 0.4375 0 0.375 0.25 0.375 0 0.5 0 0.4375 0.25 0.4375 0 0.5625 0 0.5625 0.25 0.5625 0 0.5625 0 0.5625 0.25 0.5625 0 0.5625 0.25 0.5625 0.5 0.5625 0.25 0.5625 0.5 0.5625 0.75 0.5625 0.5 0.5625 0.75 0.5625 1 0.5625 0.75 0.5 0.75 0.5 1 0.5 0.75 0.5 0.5 0.5 0.75 0.5 0.5 0.5 0.25 0.5 0.5 0.5 0.25 0.5 0 0.5 0.25 0.5 0 0.5625 0.75 0.5625 1 0.5625 0.75 0.5625 0.5 0.5625 0.75 0.5625 0.5 0.5625 0.25 0.5625 0.5 0.5625 0.25 0.5625 0 0.5625 0.25 0.5625 0 0.5625 0 0.5625 0.25 0.5625 0 0.5625 0.25 0.5625 0.5 0.5625 0.25 0.5625 0.5 0.5625 0.75 0.5625 0.5 0.5625 0.75 0.5625 1 0.5625 0.75 0.5625 0.75 0.5625 1 0.5625 0.75 0.5625 0.5 0.5625 0.75 0.5625 0.5 0.5625 0.25 0.5625 0.5 0.5625 0.25 0.5625 0 0.5625 0.25 0.5625 0 0.5 0 0.5 0.25 0.5 0 0.5 0.25 0.5 0.5 0.5 0.25 0.5 0.5 0.5 0.75 0.5 0.5 0.5 0.75 0.5 1 0.5 0.75 0.5625 0 0.5625 0.25 0.5625 0 0.5625 0.25 0.5625 0.5 0.5625 0.25 0.5625 0.5 0.5625 0.75 0.5625 0.5 0.5625 0.75 0.5625 1 0.5625 0.75 0.5625 0.25 0.53125 0.25 0.53125 0.25 0.5625 0.5 0.53125 0.75 0.53125 0.5 0.5625 0.75 0.53125 0.75 0.53125 0.75 0.5625 0 0.53125 0.25 0.53125 0 0.53125 0 0.5 0.25 0.5 0 0.53125 0.25 0.5 0.5 0.5 0.25 0.53125 0.5 0.5 0.75 0.5 0.5 0.53125 0.75 0.5 1 0.5 0.75 0.5625 0.75 0.53125 1 0.53125 0.75 0.5625 0.25 0.53125 0.5 0.53125 0.25 0.5625 0.5 0.5625 0.25 0.5625 0.25 0.53125 0.75 0.53125 1 0.53125 1 0.5625 1 0.5625 0.75 0.5625 0.75 0.53125 0.25 0.53125 0.5 0.53125 0.5 0.53125 0.5 0.5625 0.5 0.5625 0.5 0.53125 0 0.5625 0 0.5625 0 0.375 0.25 0.625 0.25 0.625 0 0.375 0.5 0.625 0.5 0.625 0.25 0.375 0.75 0.625 0.75 0.625 0.5 0.375 1 0.625 1 0.625 0.75 0.125 0.75 0.375 0.75 0.375 0.5 0.625 0.75 0.875 0.75 0.875 0.5 0.625 0 0.625 0.25 0.5625 0.25 0.625 0.25 0.625 0.5 0.5625 0.5 0.625 0.5 0.625 0.75 0.5625 0.75 0.625 0.75 0.625 1 0.5625 1 0.375 0.5 0.375 0.75 0.125 0.75 0.875 0.5 0.875 0.75 0.625 0.75 0.4375 0.75 0.4375 1 0.375 1 0.5 0.75 0.5 1 0.4375 1 0.5625 0.75 0.5625 1 0.5625 1 0.4375 0.5 0.4375 0.75 0.375 0.75 0.5 0.5 0.5 0.75 0.4375 0.75 0.5625 0.5 0.5625 0.75 0.5625 0.75 0.4375 0.25 0.4375 0.5 0.375 0.5 0.5 0.25 0.5 0.5 0.4375 0.5 0.5625 0.25 0.5625 0.5 0.5625 0.5 0.4375 0 0.4375 0.25 0.375 0.25 0.5 0 0.5 0.25 0.4375 0.25 0.5625 0 0.5625 0.25 0.5625 0.25 0.5625 0 0.5625 0.25 0.5625 0.25 0.5625 0.25 0.5625 0.5 0.5625 0.5 0.5625 0.5 0.5625 0.75 0.5625 0.75 0.5625 0.75 0.5625 1 0.5625 1 0.5 0.75 0.5 1 0.5 1 0.5 0.5 0.5 0.75 0.5 0.75 0.5 0.25 0.5 0.5 0.5 0.5 0.5 0 0.5 0.25 0.5 0.25 0.5625 0.75 0.5625 1 0.5625 1 0.5625 0.5 0.5625 0.75 0.5625 0.75 0.5625 0.25 0.5625 0.5 0.5625 0.5 0.5625 0 0.5625 0.25 0.5625 0.25 0.5625 0 0.5625 0.25 0.5625 0.25 0.5625 0.25 0.5625 0.5 0.5625 0.5 0.5625 0.5 0.5625 0.75 0.5625 0.75 0.5625 0.75 0.5625 1 0.5625 1 0.5625 0.75 0.5625 1 0.5625 1 0.5625 0.5 0.5625 0.75 0.5625 0.75 0.5625 0.25 0.5625 0.5 0.5625 0.5 0.5625 0 0.5625 0.25 0.5625 0.25 0.5 0 0.5 0.25 0.5 0.25 0.5 0.25 0.5 0.5 0.5 0.5 0.5 0.5 0.5 0.75 0.5 0.75 0.5 0.75 0.5 1 0.5 1 0.5625 0 0.5625 0.25 0.5625 0.25 0.5625 0.25 0.5625 0.5 0.5625 0.5 0.5625 0.5 0.5625 0.75 0.5625 0.75 0.5625 0.75 0.5625 1 0.5625 1 0.5625 0.25 0.5625 0.25 0.53125 0.25 0.5625 0.5 0.5625 0.75 0.53125 0.75 0.5625 0.75 0.5625 0.75 0.53125 0.75 0.5625 0 0.5625 0.25 0.53125 0.25 0.53125 0 0.53125 0.25 0.5 0.25 0.53125 0.25 0.53125 0.5 0.5 0.5 0.53125 0.5 0.53125 0.75 0.5 0.75 0.53125 0.75 0.53125 1 0.5 1 0.5625 0.75 0.5625 1 0.53125 1 0.5625 0.25 0.5625 0.5 0.53125 0.5 0.5625 0.5 0.5625 0.5 0.5625 0.25 0.53125 0.75 0.53125 0.75 0.53125 1 0.5625 1 0.5625 1 0.5625 0.75 0.53125 0.25 0.53125 0.25 0.53125 0.5 0.53125 0.5 0.53125 0.5 0.5625 0.5 0.53125 0 0.53125 0 0.5625 0</float_array>
          <technique_common>
            <accessor source="#Cube_001-mesh-map-0-array" count="408" stride="2">
              <param name="S" type="float"/>
              <param name="T" type="float"/>
            </accessor>
          </technique_common>
        </source>
        <vertices id="Cube_001-mesh-vertices">
          <input semantic="POSITION" source="#Cube_001-mesh-positions"/>
        </vertices>
        <triangles material="Material_001-material" count="136">
          <input semantic="VERTEX" source="#Cube_001-mesh-vertices" offset="0"/>
          <input semantic="NORMAL" source="#Cube_001-mesh-normals" offset="1"/>
          <input semantic="TEXCOORD" source="#Cube_001-mesh-map-0" offset="2" set="0"/>
          <p>2 0 0 1 0 1 0 0 2 6 1 3 3 1 4 2 1 5 4 2 6 7 2 7 6 2 8 0 3 9 5 3 10 4 3 11 0 4 12 6 4 13 2 4 14 5 5 15 3 5 16 7 5 17 10 6 18 19 6 19 18 6 20 11 7 21 22 7 22 19 7 23 13 8 24 25 8 25 22 8 26 15 9 27 18 9 28 25 9 29 12 10 30 9 10 31 8 10 32 11 11 33 15 11 34 13 11 35 27 12 36 9 12 37 14 12 38 26 13 39 16 13 40 27 13 41 25 14 42 28 14 43 31 14 44 24 15 45 14 15 46 12 15 47 23 16 48 27 16 49 24 16 50 22 17 51 31 17 52 30 17 53 21 18 54 12 18 55 8 18 56 20 19 57 24 19 58 21 19 59 19 20 60 30 20 61 29 20 62 16 21 63 8 21 64 9 21 65 17 22 66 21 22 67 16 22 68 18 23 69 29 23 70 28 23 71 28 24 72 37 24 73 36 24 74 29 25 75 38 25 76 37 25 77 30 26 78 39 26 79 38 26 80 31 27 81 36 27 82 39 27 83 34 28 84 17 28 85 26 28 86 33 29 87 26 29 88 23 29 89 32 30 90 23 30 91 20 30 92 35 31 93 20 31 94 17 31 95 39 32 96 43 32 97 42 32 98 38 33 99 42 33 100 41 33 101 37 34 102 41 34 103 40 34 104 36 35 105 40 35 106 43 35 107 43 36 108 44 36 109 47 36 110 40 37 111 45 37 112 44 37 113 41 38 114 46 38 115 45 38 116 42 39 117 47 39 118 46 39 119 46 40 120 52 40 121 55 40 122 45 41 123 55 41 124 54 41 125 44 42 126 54 42 127 53 42 128 47 43 129 53 43 130 52 43 131 51 44 132 32 44 133 35 44 134 48 45 135 33 45 136 32 45 137 49 46 138 34 46 139 33 46 140 50 47 141 35 47 142 34 47 143 52 48 144 56 48 145 59 48 146 53 49 147 57 49 148 56 49 149 54 50 150 58 50 151 57 50 152 55 51 153 59 51 154 58 51 155 56 52 156 69 52 157 60 52 158 57 53 159 62 53 160 61 53 161 58 54 162 71 54 163 62 54 164 59 55 165 60 55 166 63 55 167 63 56 168 48 56 169 51 56 170 60 57 171 49 57 172 48 57 173 61 58 174 50 58 175 49 58 176 62 59 177 51 59 178 50 59 179 66 60 180 64 60 181 71 60 182 67 61 183 70 61 184 69 61 185 57 62 186 67 62 187 56 62 188 62 63 189 64 63 190 63 63 191 59 64 192 66 64 193 58 64 194 60 65 195 70 65 196 61 65 197 61 66 198 68 66 199 57 66 200 63 67 201 65 67 202 59 67 203 2 68 204 3 68 205 1 68 206 6 69 207 7 69 208 3 69 209 4 70 210 5 70 211 7 70 212 0 71 213 1 71 214 5 71 215 0 72 216 4 72 217 6 72 218 5 73 219 1 73 220 3 73 221 10 74 222 11 74 223 19 74 224 11 75 225 13 75 226 22 75 227 13 76 228 15 76 229 25 76 230 15 77 231 10 77 232 18 77 233 12 78 234 14 78 235 9 78 236 11 79 237 10 79 238 15 79 239 27 80 240 16 80 241 9 80 242 26 81 243 17 81 244 16 81 245 25 82 246 18 82 247 28 82 248 24 83 249 27 83 250 14 83 251 23 84 252 26 84 253 27 84 254 22 85 255 25 85 256 31 85 257 21 86 258 24 86 259 12 86 260 20 87 261 23 87 262 24 87 263 19 88 264 22 88 265 30 88 266 16 89 267 21 89 268 8 89 269 17 90 270 20 90 271 21 90 272 18 91 273 19 91 274 29 91 275 28 92 276 29 92 277 37 92 278 29 93 279 30 93 280 38 93 281 30 94 282 31 94 283 39 94 284 31 95 285 28 95 286 36 95 287 34 96 288 35 96 289 17 96 290 33 97 291 34 97 292 26 97 293 32 98 294 33 98 295 23 98 296 35 99 297 32 99 298 20 99 299 39 100 300 36 100 301 43 100 302 38 101 303 39 101 304 42 101 305 37 102 306 38 102 307 41 102 308 36 103 309 37 103 310 40 103 311 43 104 312 40 104 313 44 104 314 40 105 315 41 105 316 45 105 317 41 106 318 42 106 319 46 106 320 42 107 321 43 107 322 47 107 323 46 108 324 47 108 325 52 108 326 45 109 327 46 109 328 55 109 329 44 110 330 45 110 331 54 110 332 47 111 333 44 111 334 53 111 335 51 112 336 48 112 337 32 112 338 48 113 339 49 113 340 33 113 341 49 114 342 50 114 343 34 114 344 50 115 345 51 115 346 35 115 347 52 116 348 53 116 349 56 116 350 53 117 351 54 117 352 57 117 353 54 118 354 55 118 355 58 118 356 55 119 357 52 119 358 59 119 359 56 120 360 67 120 361 69 120 362 57 121 363 58 121 364 62 121 365 58 122 366 66 122 367 71 122 368 59 123 369 56 123 370 60 123 371 63 124 372 60 124 373 48 124 374 60 125 375 61 125 376 49 125 377 61 126 378 62 126 379 50 126 380 62 127 381 63 127 382 51 127 383 66 128 384 65 128 385 64 128 386 67 129 387 68 129 388 70 129 389 57 130 390 68 130 391 67 130 392 62 131 393 71 131 394 64 131 395 59 132 396 65 132 397 66 132 398 60 133 399 69 133 400 70 133 401 61 134 402 70 134 403 68 134 404 63 135 405 64 135 406 65 135 407</p>
        </triangles>
      </mesh>
    </geometry>
    <geometry id="Plane-mesh" name="Plane">
      <mesh>
        <source id="Plane-mesh-positions">
          <float_array id="Plane-mesh-positions-array" count="24">-1 -1 0 1 -1 0 -1 1 0 1 1 0 -1 1 0 -1 -1 0 1 -1 0 1 1 0</float_array>
          <technique_common>
            <accessor source="#Plane-mesh-positions-array" count="8" stride="3">
              <param name="X" type="float"/>
              <param name="Y" type="float"/>
              <param name="Z" type="float"/>
            </accessor>
          </technique_common>
        </source>
        <source id="Plane-mesh-normals">
          <float_array id="Plane-mesh-normals-array" count="36">0 0 -1 0 0 1 0 0 1 0 0 1 0 0 1 0 0 1 0 0 -1 0 0 1 0 0 1 0 0 1 0 0 1 0 0 1</float_array>
          <technique_common>
            <accessor source="#Plane-mesh-normals-array" count="12" stride="3">
              <param name="X" type="float"/>
              <param name="Y" type="float"/>
              <param name="Z" type="float"/>
            </accessor>
          </technique_common>
        </source>
        <source id="Plane-mesh-map-0">
          <float_array id="Plane-mesh-map-0-array" count="72">0 1 1 0 0 0 1 0 0 1 0 0 1 0 0 0 0 0 1 1 1 0 1 0 0 0 0 1 0 1 0 1 1 1 1 1 0 1 1 1 1 0 1 0 1 1 0 1 1 0 1 0 0 0 1 1 1 1 1 0 0 0 0 0 0 1 0 1 0 1 1 1</float_array>
          <technique_common>
            <accessor source="#Plane-mesh-map-0-array" count="36" stride="2">
              <param name="S" type="float"/>
              <param name="T" type="float"/>
            </accessor>
          </technique_common>
        </source>
        <vertices id="Plane-mesh-vertices">
          <input semantic="POSITION" source="#Plane-mesh-positions"/>
        </vertices>
        <triangles count="12">
          <input semantic="VERTEX" source="#Plane-mesh-vertices" offset="0"/>
          <input semantic="NORMAL" source="#Plane-mesh-normals" offset="1"/>
          <input semantic="TEXCOORD" source="#Plane-mesh-map-0" offset="2" set="0"/>
          <p>2 0 0 1 0 1 0 0 2 6 1 3 4 1 4 5 1 5 1 2 6 5 2 7 0 2 8 3 3 9 6 3 10 1 3 11 0 4 12 4 4 13 2 4 14 2 5 15 7 5 16 3 5 17 2 6 18 3 6 19 1 6 20 6 7 21 7 7 22 4 7 23 1 8 24 6 8 25 5 8 26 3 9 27 7 9 28 6 9 29 0 10 30 5 10 31 4 10 32 2 11 33 4 11 34 7 11 35</p>
        </triangles>
      </mesh>
    </geometry>
    <geometry id="Cube-mesh" name="Cube">
      <mesh>
        <source id="Cube-mesh-positions">
          <float_array id="Cube-mesh-positions-array" count="84">1 1 -1 1 -1 -1 -1 1 -1 -1 -1 -1 0.1825441 0.1825441 1 1 1 0.1825441 0.435152 0.435152 0.9599909 0.6630327 0.6630327 0.8438799 0.8438799 0.8438799 0.6630327 0.9599909 0.9599909 0.435152 0.1825441 -0.1825441 1 1 -1 0.1825441 0.435152 -0.435152 0.9599909 0.6630327 -0.6630327 0.8438799 0.8438799 -0.8438799 0.6630327 0.9599909 -0.9599909 0.435152 -0.1825441 0.1825441 1 -1 1 0.1825441 -0.435152 0.435152 0.9599909 -0.6630327 0.6630327 0.8438799 -0.8438799 0.8438799 0.6630327 -0.9599909 0.9599909 0.435152 -0.1825441 -0.1825441 1 -1 -1 0.1825441 -0.435152 -0.435152 0.9599909 -0.6630327 -0.6630327 0.8438799 -0.8438799 -0.8438799 0.6630327 -0.9599909 -0.9599909 0.435152</float_array>
          <technique_common>
            <accessor source="#Cube-mesh-positions-array" count="28" stride="3">
              <param name="X" type="float"/>
              <param name="Y" type="float"/>
              <param name="Z" type="float"/>
            </accessor>
          </technique_common>
        </source>
        <source id="Cube-mesh-normals">
          <float_array id="Cube-mesh-normals-array" count="156">0 -1 0 -1 0 0 0 0 -1 0 0 1 1 0 0 0 -0.1564342 0.9876884 0 -0.4539905 0.8910065 0 -0.7071068 0.7071068 0 -0.8910065 0.4539905 0 -0.9876884 0.1564342 0.1564342 0 0.9876884 0.4539905 0 0.8910065 0.7071068 0 0.7071068 0.8910065 0 0.4539905 0.9876884 0 0.1564342 -0.1564342 0 0.9876884 -0.4539905 0 0.8910065 -0.7071068 0 0.7071068 -0.8910065 0 0.4539905 -0.9876884 0 0.1564342 0 0.1564342 0.9876884 0 0.4539905 0.8910065 0 0.7071068 0.7071068 0 0.8910065 0.4539905 0 0.9876884 0.1564342 0 1 0 0 -1 0 -1 0 0 0 0 -1 0 0 1 1 0 0 0 -0.1564342 0.9876884 0 -0.4539906 0.8910065 0 -0.7071068 0.7071068 0 -0.8910065 0.4539905 0 -0.9876883 0.1564342 0.1564342 0 0.9876884 0.4539906 0 0.8910065 0.7071068 0 0.7071068 0.8910065 0 0.4539905 0.9876883 0 0.1564342 -0.1564342 0 0.9876884 -0.4539906 0 0.8910065 -0.7071068 0 0.7071068 -0.8910065 0 0.4539905 -0.9876883 0 0.1564342 0 0.1564342 0.9876884 0 0.4539906 0.8910065 0 0.7071068 0.7071068 0 0.8910065 0.4539905 0 0.9876883 0.1564342 0 1 0</float_array>
          <technique_common>
            <accessor source="#Cube-mesh-normals-array" count="52" stride="3">
              <param name="X" type="float"/>
              <param name="Y" type="float"/>
              <param name="Z" type="float"/>
            </accessor>
          </technique_common>
        </source>
        <source id="Cube-mesh-map-0">
          <float_array id="Cube-mesh-map-0-array" count="312">0.522818 0.75 0.375 1 0.375 0.75 0.522818 0 0.375 0.25 0.375 0 0.375 0.5 0.125 0.75 0.125 0.5 0.772818 0.6021819 0.727182 0.647818 0.727182 0.602182 0.522818 0.5 0.375 0.75 0.375 0.5 0.7728181 0.647818 0.695606 0.679394 0.727182 0.647818 0.804394 0.679394 0.6671209 0.7078791 0.695606 0.679394 0.8328791 0.7078791 0.644515 0.75 0.6671209 0.7078791 0.625 0.980485 0.554394 0.7550011 0.625 0.769515 0.554394 0.9949988 0.522818 0.75 0.554394 0.7550011 0.727182 0.647818 0.695606 0.570606 0.727182 0.602182 0.695606 0.679394 0.6671209 0.5421209 0.695606 0.570606 0.6671209 0.7078791 0.5828791 0.519515 0.6671209 0.5421209 0.5828791 0.730485 0.554394 0.5050011 0.5828791 0.519515 0.554394 0.7449989 0.522818 0.5 0.554394 0.5050011 0.772818 0.6021819 0.804394 0.679394 0.7728181 0.647818 0.804394 0.570606 0.8328791 0.7078791 0.804394 0.679394 0.8328791 0.5421209 0.875 0.730485 0.8328791 0.7078791 0.625 0.230485 0.554394 0.005001127 0.625 0.01951497 0.554394 0.2449988 0.522818 0 0.554394 0.005001127 0.727182 0.602182 0.804394 0.570606 0.772818 0.6021819 0.695606 0.570606 0.8328791 0.5421209 0.804394 0.570606 0.6671209 0.5421209 0.855485 0.5 0.8328791 0.5421209 0.625 0.480485 0.554394 0.2550011 0.625 0.269515 0.554394 0.4949989 0.522818 0.25 0.554394 0.2550011 0.522818 0.25 0.375 0.5 0.375 0.25 0.522818 0.75 0.522818 1 0.375 1 0.522818 0 0.522818 0.25 0.375 0.25 0.375 0.5 0.375 0.75 0.125 0.75 0.772818 0.6021819 0.7728181 0.647818 0.727182 0.647818 0.522818 0.5 0.522818 0.75 0.375 0.75 0.7728181 0.647818 0.804394 0.679394 0.695606 0.679394 0.804394 0.679394 0.8328791 0.7078791 0.6671209 0.7078791 0.8328791 0.7078791 0.855485 0.75 0.644515 0.75 0.625 0.980485 0.554394 0.9949988 0.554394 0.7550011 0.554394 0.9949988 0.522818 1 0.522818 0.75 0.727182 0.647818 0.695606 0.679394 0.695606 0.570606 0.695606 0.679394 0.6671209 0.7078791 0.6671209 0.5421209 0.6671209 0.7078791 0.5828791 0.730485 0.5828791 0.519515 0.5828791 0.730485 0.554394 0.7449989 0.554394 0.5050011 0.554394 0.7449989 0.522818 0.75 0.522818 0.5 0.772818 0.6021819 0.804394 0.570606 0.804394 0.679394 0.804394 0.570606 0.8328791 0.5421209 0.8328791 0.7078791 0.8328791 0.5421209 0.875 0.519515 0.875 0.730485 0.625 0.230485 0.554394 0.2449988 0.554394 0.005001127 0.554394 0.2449988 0.522818 0.25 0.522818 0 0.727182 0.602182 0.695606 0.570606 0.804394 0.570606 0.695606 0.570606 0.6671209 0.5421209 0.8328791 0.5421209 0.6671209 0.5421209 0.644515 0.5 0.855485 0.5 0.625 0.480485 0.554394 0.4949989 0.554394 0.2550011 0.554394 0.4949989 0.522818 0.5 0.522818 0.25 0.522818 0.25 0.522818 0.5 0.375 0.5</float_array>
          <technique_common>
            <accessor source="#Cube-mesh-map-0-array" count="156" stride="2">
              <param name="S" type="float"/>
              <param name="T" type="float"/>
            </accessor>
          </technique_common>
        </source>
        <vertices id="Cube-mesh-vertices">
          <input semantic="POSITION" source="#Cube-mesh-positions"/>
        </vertices>
        <triangles material="Material-material" count="52">
          <input semantic="VERTEX" source="#Cube-mesh-vertices" offset="0"/>
          <input semantic="NORMAL" source="#Cube-mesh-normals" offset="1"/>
          <input semantic="TEXCOORD" source="#Cube-mesh-map-0" offset="2" set="0"/>
          <p>11 0 0 3 0 1 1 0 2 23 1 3 2 1 4 3 1 5 0 2 6 3 2 7 2 2 8 16 3 9 10 3 10 4 3 11 5 4 12 1 4 13 0 4 14 22 5 15 12 5 16 10 5 17 24 6 18 13 6 19 12 6 20 25 7 21 14 7 22 13 7 23 26 8 24 15 8 25 14 8 26 27 9 27 11 9 28 15 9 29 10 10 30 6 10 31 4 10 32 12 11 33 7 11 34 6 11 35 13 12 36 8 12 37 7 12 38 14 13 39 9 13 40 8 13 41 15 14 42 5 14 43 9 14 44 16 15 45 24 15 46 22 15 47 18 16 48 25 16 49 24 16 50 19 17 51 26 17 52 25 17 53 20 18 54 27 18 55 26 18 56 21 19 57 23 19 58 27 19 59 4 20 60 18 20 61 16 20 62 6 21 63 19 21 64 18 21 65 7 22 66 20 22 67 19 22 68 8 23 69 21 23 70 20 23 71 9 24 72 17 24 73 21 24 74 17 25 75 0 25 76 2 25 77 11 26 78 23 26 79 3 26 80 23 27 81 17 27 82 2 27 83 0 28 84 1 28 85 3 28 86 16 29 87 22 29 88 10 29 89 5 30 90 11 30 91 1 30 92 22 31 93 24 31 94 12 31 95 24 32 96 25 32 97 13 32 98 25 33 99 26 33 100 14 33 101 26 34 102 27 34 103 15 34 104 27 35 105 23 35 106 11 35 107 10 36 108 12 36 109 6 36 110 12 37 111 13 37 112 7 37 113 13 38 114 14 38 115 8 38 116 14 39 117 15 39 118 9 39 119 15 40 120 11 40 121 5 40 122 16 41 123 18 41 124 24 41 125 18 42 126 19 42 127 25 42 128 19 43 129 20 43 130 26 43 131 20 44 132 21 44 133 27 44 134 21 45 135 17 45 136 23 45 137 4 46 138 6 46 139 18 46 140 6 47 141 7 47 142 19 47 143 7 48 144 8 48 145 20 48 146 8 49 147 9 49 148 21 49 149 9 50 150 5 50 151 17 50 152 17 51 153 5 51 154 0 51 155</p>
        </triangles>
      </mesh>
    </geometry>
  </library_geometries>
  <library_visual_scenes>
    <visual_scene id="Scene" name="Scene">
      <node id="Cube_001" name="Cube.001" type="NODE">
        <matrix sid="transform">0.02919683 0 0 -0.01119448 0 0.04397783 0 0.02245433 0 0 0.3872669 2.382315 0 0 0 1</matrix>
        <instance_geometry url="#Cube_001-mesh" name="Cube.001">
          <bind_material>
            <technique_common>
              <instance_material symbol="Material_001-material" target="#Material_001-material">
                <bind_vertex_input semantic="UVMap" input_semantic="TEXCOORD" input_set="0"/>
              </instance_material>
            </technique_common>
          </bind_material>
        </instance_geometry>
      </node>
      <node id="Plane" name="Plane" type="NODE">
        <matrix sid="transform">2.170914 0 0 2.351627 0 1 0 0 0 0 1 0 0 0 0 1</matrix>
        <instance_geometry url="#Plane-mesh" name="Plane"/>
      </node>
      <node id="Cube" name="Cube" type="NODE">
        <matrix sid="transform">0.1848704 0 0 0 0 1 0 0 0 0 1 1 0 0 0 1</matrix>
        <instance_geometry url="#Cube-mesh" name="Cube">
          <bind_material>
            <technique_common>
              <instance_material symbol="Material-material" target="#Material-material">
                <bind_vertex_input semantic="UVMap" input_semantic="TEXCOORD" input_set="0"/>
              </instance_material>
            </technique_common>
          </bind_material>
        </instance_geometry>
      </node>
    </visual_scene>
  </library_visual_scenes>
  <scene>
    <instance_visual_scene url="#Scene"/>
  </scene>
</COLLADA>