<?xml version="1.0" encoding="utf-8"?>
<COLLADA xmlns="http://www.collada.org/2005/11/COLLADASchema" version="1.4.1" xmlns:xsi="http://www.w3.org/2001/XMLSchema-instance">
  <asset>
    <contributor>
      <author>Blender User</author>
      <authoring_tool>Blender 4.4.0 commit date:2025-03-17, commit time:17:00, hash:05377985c527</authoring_tool>
    </contributor>
    <created>2026-08-24T22:24:32</created>
    <modified>2026-08-24T22:24:32</modified>
    <unit name="meter" meter="1"/>
    <up_axis>Z_UP</up_axis>
  </asset>
  <library_effects>
    <effect id="Material_002-effect">
      <profile_COMMON>
        <technique sid="common">
          <lambert>
            <emission>
              <color sid="emission">0 0 0 1</color>
            </emission>
            <diffuse>
              <color sid="diffuse">0.2122294 0.2122309 0.2122308 1</color>
            </diffuse>
            <reflectivity>
              <float sid="specular">1</float>
            </reflectivity>
            <index_of_refraction>
              <float sid="ior">1.45</float>
            </index_of_refraction>
          </lambert>
        </technique>
      </profile_COMMON>
    </effect>
    <effect id="WoodDark_006-effect">
      <profile_COMMON>
        <technique sid="common">
          <lambert>
            <emission>
              <color sid="emission">0 0 0 1</color>
            </emission>
            <diffuse>
              <color sid="diffuse">0.08353172 0.05347686 0.01402403 1</color>
            </diffuse>
            <index_of_refraction>
              <float sid="ior">1.45</float>
            </index_of_refraction>
          </lambert>
        </technique>
      </profile_COMMON>
    </effect>
  </library_effects>
  <library_images/>
  <library_materials>
    <material id="Material_002-material" name="Material.002">
      <instance_effect url="#Material_002-effect"/>
    </material>
    <material id="WoodDark_006-material" name="WoodDark.006">
      <instance_effect url="#WoodDark_006-effect"/>
    </material>
  </library_materials>
  <library_geometries>
    <geometry id="Circle_001-mesh" name="Circle.001">
      <mesh>
        <source id="Circle_001-mesh-positions">
          <float_array id="Circle_001-mesh-positions-array" count="192">0 1 0 -0.8660254 0.5 0 -0.8660254 -0.5 0 0 -1 0 0.8660254 -0.5 0 0.8660254 0.5 0 0 1 1.693823 -0.8660254 0.5 1.693823 -0.8660254 -0.5 1.693823 0 -1 1.693823 0.8660254 -0.5 1.693823 0.8660254 0.5 1.693823 0.8660254 -0.5 1.366047 0.8660254 -0.5 0.3132928 0.8660254 0.5 0.3132928 0.8660254 0.5 1.366047 -0.8660254 -0.5 1.366047 -0.8660254 -0.5 0.3132928 0 -1 0.3132928 0 -1 1.366047 0 1 1.366047 0 1 0.3132928 -0.8660254 0.5 0.3132928 -0.8660254 0.5 1.366047 -1.352965 -1.343404 1.275694 -1.839904 -2.186808 0.9583774 -2.326843 -3.030211 0.3997463 -2.813783 -3.873615 -0.3012038 -3.300722 -4.717019 -1.29428 -2.434697 -5.217019 -1.294279 -1.947757 -4.373615 -0.3012034 -1.460818 -3.530211 0.3997465 -0.9738787 -2.686807 0.9583776 -0.4869393 -1.843404 1.275694 -0.4869393 -1.843404 0.4996478 -0.9738786 -2.686808 0.2063426 -1.460818 -3.530211 -0.239898 -1.947757 -4.373615 -0.8193861 -2.434697 -5.217019 -1.485376 -3.300722 -4.717019 -1.485376 -2.813783 -3.873615 -0.819386 -2.326843 -3.030211 -0.2398979 -1.839904 -2.186807 0.2063425 -1.352965 -1.343404 0.4996476 1.352965 1.343404 0.4996479 1.839904 2.186808 0.2063426 2.326843 3.030211 -0.239898 2.813783 3.873615 -0.8193861 3.300722 4.717019 -1.485376 3.300722 4.717019 -1.294279 2.813783 3.873615 -0.3012034 2.326843 3.030211 0.3997465 1.839904 2.186807 0.9583777 1.352965 1.343404 1.275694 2.434697 5.217019 -1.294279 1.947757 4.373615 -0.3012034 1.460818 3.530211 0.3997465 0.9738787 2.686807 0.9583776 0.4869393 1.843404 1.275694 2.434697 5.217019 -1.485376 1.947757 4.373615 -0.819386 1.460818 3.530211 -0.2398979 0.9738787 2.686807 0.2063426 0.4869393 1.843404 0.4996477</float_array>
          <technique_common>
            <accessor source="#Circle_001-mesh-positions-array" count="64" stride="3">
              <param name="X" type="float"/>
              <param name="Y" type="float"/>
              <param name="Z" type="float"/>
            </accessor>
          </technique_common>
        </source>
        <source id="Circle_001-mesh-normals">
          <float_array id="Circle_001-mesh-normals-array" count="372">1 0 0 -0.5 -0.8660253 0 -0.5 0.8660253 0 0.5 0.8660254 0 0.5 -0.8660254 0 -1 0 0 0 0 1 0 0 -1 -1 0 0 -1 0 0 0.5 -0.8660254 0 0.5 -0.8660254 0 0.5 0.8660254 0 -0.5 0.8660255 0 -0.5 0.8660254 0 -0.5 -0.8660255 0 1 0 0 1 0 0 0.4999996 0.8660256 0 -0.5000004 -0.8660252 -2.16097e-6 -0.8660255 0.4999999 1.53611e-7 -0.8660255 0.4999999 1.57731e-7 -0.8660256 0.4999998 3.25535e-7 -0.8660255 0.4999998 3.82733e-7 -0.8660256 0.4999995 4.72446e-7 0.8660255 -0.5 0 0.8660254 -0.5 3.85671e-7 0.8660254 -0.5000001 5.34135e-7 0.8660252 -0.5000002 6.59337e-7 0.866025 -0.5000007 1.24764e-6 -0.09397155 -0.1627637 -0.9821799 0.1441889 0.2497419 -0.9575168 0.208281 0.3607529 -0.9091075 0.2556763 0.4428442 -0.8593711 0.2822415 0.4888563 -0.8254449 -0.04619008 -0.08000332 0.9957239 -0.1548991 -0.2682925 0.9508025 -0.2487838 -0.4309062 0.8674252 -0.2920857 -0.5059073 0.8116303 -0.356987 -0.6183196 0.7001722 0.0939719 0.1627638 -0.9821798 -0.1441886 -0.2497423 -0.9575169 -0.2082809 -0.3607532 -0.9091073 -0.2556761 -0.4428442 -0.8593711 -0.2822411 -0.4888564 -0.8254451 -0.8660253 0.5 0 -0.8660254 0.5000001 0 -0.8660254 0.5 0 -0.8660255 0.5 0 -0.8660254 0.4999999 0 0.04618984 0.08000344 0.9957239 0.1548987 0.2682926 0.9508026 0.2487838 0.4309062 0.8674252 0.2920857 0.5059073 0.8116303 0.356987 0.6183196 0.7001722 0.8660255 -0.5 -1.53611e-7 0.8660253 -0.5000001 0 0.8660254 -0.5000001 -2.84843e-7 0.8660253 -0.5000002 -3.82734e-7 0.8660252 -0.5000004 -4.72447e-7 1 0 0 -0.5 -0.8660254 0 -0.5 0.8660254 0 0.5 0.8660253 0 0.5 -0.8660253 0 -1 0 0 0 0 1 0 0 1 0 0 1 0 0 -1 0 0 -1 0 0 -1 -1 0 0 -1 0 0 0.5 -0.8660255 0 0.5 -0.8660254 0 0.5 0.8660255 0 -0.5 0.8660254 0 -0.5 0.8660254 0 -0.5 -0.8660254 0 1 0 0 1 0 0 0.5 0.8660255 2.16097e-6 -0.4999996 -0.8660256 2.16097e-6 -0.8660254 0.5 0 -0.8660255 0.5 3.17031e-7 -0.8660256 0.4999998 3.72736e-7 -0.8660255 0.4999998 4.60105e-7 -0.8660259 0.4999993 1.24764e-6 0.8660254 -0.5000001 1.86869e-7 0.8660253 -0.5000001 1.86869e-7 0.8660253 -0.5000001 3.85671e-7 0.8660253 -0.5000003 5.34136e-7 0.8660251 -0.5000005 6.59337e-7 -0.09397149 -0.1627638 -0.9821799 0.1441888 0.249742 -0.9575169 0.2082809 0.3607531 -0.9091074 0.2556763 0.442844 -0.8593711 0.2822416 0.4888561 -0.825445 -0.04619038 -0.08000344 0.9957238 -0.1548988 -0.2682924 0.9508025 -0.2487838 -0.4309062 0.8674251 -0.2920859 -0.5059074 0.8116303 -0.3569868 -0.6183197 0.7001723 0.09397172 0.1627637 -0.9821798 -0.1441885 -0.2497422 -0.9575169 -0.2082807 -0.3607531 -0.9091075 -0.2556762 -0.4428442 -0.8593712 -0.2822412 -0.4888564 -0.8254449 -0.8660254 0.5000001 0 -0.8660254 0.5000001 0 -0.8660255 0.5 0 -0.8660254 0.4999999 0 -0.8660255 0.5 0 0.04618984 0.08000344 0.9957239 0.1548987 0.2682927 0.9508026 0.2487838 0.4309064 0.8674251 0.2920858 0.5059073 0.8116304 0.356987 0.6183196 0.7001722 0.8660255 -0.4999998 0 0.8660254 -0.5 -3.17031e-7 0.8660253 -0.5000001 -3.72736e-7 0.8660252 -0.5000002 -4.60105e-7 0.866025 -0.5000007 -1.24764e-6</float_array>
          <technique_common>
            <accessor source="#Circle_001-mesh-normals-array" count="124" stride="3">
              <param name="X" type="float"/>
              <param name="Y" type="float"/>
              <param name="Z" type="float"/>
            </accessor>
          </technique_common>
        </source>
        <source id="Circle_001-mesh-map-0">
          <float_array id="Circle_001-mesh-map-0-array" count="744">0 0 0 0 0 0 0 0 0 0 0 0 0 0 0 0 0 0 0 0 0 0 0 0 0 0 0 0 0 0 0 0 0 0 0 0 0 0 0 0 0 0 0 0 0 0 0 0 0 0 0 0 0 0 0 0 0 0 0 0 0 0 0 0 0 0 0 0 0 0 0 0 0 0 0 0 0 0 0 0 0 0 0 0 0 0 0 0 0 0 0 0 0 0 0 0 0 0 0 0 0 0 0 0 0 0 0 0 0 0 0 0 0 0 0 0 0 0 0 0 0 0 0 0 0 0 0 0 0 0 0 0 0 0 0 0 0 0 0 0 0 0 0 0 0 0 0 0 0 0 0 0 0 0 0 0 0 0 0 0 0 0 0 0 0 0 0 0 0 0 0 0 0 0 0 0 0 0 0 0 0 0 0 0 0 0 0 0 0 0 0 0 0 0 0 0 0 0 0 0 0 0 0 0 0 0 0 0 0 0 0 0 0 0 0 0 0 0 0 0 0 0 0 0 0 0 0 0 0 0 0 0 0 0 0 0 0 0 0 0 0 0 0 0 0 0 0 0 0 0 0 0 0 0 0 0 0 0 0 0 0 0 0 0 0 0 0 0 0 0 0 0 0 0 0 0 0 0 0 0 0 0 0 0 0 0 0 0 0 0 0 0 0 0 0 0 0 0 0 0 0 0 0 0 0 0 0 0 0 0 0 0 0 0 0 0 0 0 0 0 0 0 0 0 0 0 0 0 0 0 0 0 0 0 0 0 0 0 0 0 0 0 0 0 0 0 0 0 0 0 0 0 0 0 0 0 0 0 0 0 0 0 0 0 0 0 0 0 0 0 0 0 0 0 0 0 0 0 0 0 0 0 0 0 0 0 0 0 0 0 0 0 0 0 0 0 0 0 0 0 0 0 0 0 0 0 0 0 0 0 0 0 0 0 0 0 0 0 0 0 0 0 0 0 0 0 0 0 0 0 0 0 0 0 0 0 0 0 0 0 0 0 0 0 0 0 0 0 0 0 0 0 0 0 0 0 0 0 0 0 0 0 0 0 0 0 0 0 0 0 0 0 0 0 0 0 0 0 0 0 0 0 0 0 0 0 0 0 0 0 0 0 0 0 0 0 0 0 0 0 0 0 0 0 0 0 0 0 0 0 0 0 0 0 0 0 0 0 0 0 0 0 0 0 0 0 0 0 0 0 0 0 0 0 0 0 0 0 0 0 0 0 0 0 0 0 0 0 0 0 0 0 0 0 0 0 0 0 0 0 0 0 0 0 0 0 0 0 0 0 0 0 0 0 0 0 0 0 0 0 0 0 0 0 0 0 0 0 0 0 0 0 0 0 0 0 0 0 0 0 0 0 0 0 0 0 0 0 0 0 0 0 0 0 0 0 0 0 0 0 0 0 0 0 0 0 0 0 0 0 0 0 0 0 0 0 0 0 0 0 0 0 0 0 0 0 0 0 0 0 0 0 0 0 0 0 0 0 0 0 0 0 0 0 0 0 0 0 0 0 0 0 0 0 0 0 0 0 0 0 0 0 0 0 0 0 0 0 0 0 0 0 0 0 0 0 0 0 0 0 0 0 0 0 0 0 0 0 0 0 0 0 0 0 0 0 0 0 0 0 0 0 0 0 0 0 0 0 0 0 0 0 0 0 0 0 0 0 0 0 0 0 0 0</float_array>
          <technique_common>
            <accessor source="#Circle_001-mesh-map-0-array" count="372" stride="2">
              <param name="S" type="float"/>
              <param name="T" type="float"/>
            </accessor>
          </technique_common>
        </source>
        <vertices id="Circle_001-mesh-vertices">
          <input semantic="POSITION" source="#Circle_001-mesh-positions"/>
        </vertices>
        <triangles material="Material_002-material" count="124">
          <input semantic="VERTEX" source="#Circle_001-mesh-vertices" offset="0"/>
          <input semantic="NORMAL" source="#Circle_001-mesh-normals" offset="1"/>
          <input semantic="TEXCOORD" source="#Circle_001-mesh-map-0" offset="2" set="0"/>
          <p>15 0 0 10 0 1 12 0 2 19 1 3 8 1 4 16 1 5 23 2 6 6 2 7 20 2 8 15 3 9 6 3 10 11 3 11 19 4 12 10 4 13 9 4 14 23 5 15 8 5 16 7 5 17 8 6 18 10 6 19 6 6 20 0 7 21 4 7 22 2 7 23 2 8 24 22 8 25 1 8 26 22 9 27 16 9 28 23 9 29 4 10 30 18 10 31 3 10 32 18 11 33 12 11 34 19 11 35 0 12 36 14 12 37 5 12 38 1 13 39 21 13 40 0 13 41 22 14 42 20 14 43 21 14 44 3 15 45 17 15 46 2 15 47 5 16 48 13 16 49 4 16 50 14 17 51 12 17 52 13 17 53 54 18 54 48 18 55 59 18 56 38 19 57 28 19 58 39 19 59 16 20 60 43 20 61 24 20 62 43 21 63 25 21 64 24 21 65 42 22 66 26 22 67 25 22 68 41 23 69 27 23 70 26 23 71 40 24 72 28 24 73 27 24 74 19 25 75 34 25 76 18 25 77 34 26 78 32 26 79 35 26 80 35 27 81 31 27 82 36 27 83 36 28 84 30 28 85 37 28 86 37 29 87 29 29 88 38 29 89 18 30 90 43 30 91 17 30 92 34 31 93 42 31 94 43 31 95 35 32 96 41 32 97 42 32 98 36 33 99 40 33 100 41 33 101 37 34 102 39 34 103 40 34 104 16 35 105 33 35 106 19 35 107 24 36 108 32 36 109 33 36 110 25 37 111 31 37 112 32 37 113 26 38 114 30 38 115 31 38 116 27 39 117 29 39 118 30 39 119 14 40 120 63 40 121 44 40 122 44 41 123 62 41 124 45 41 125 45 42 126 61 42 127 46 42 128 46 43 129 60 43 130 47 43 131 47 44 132 59 44 133 48 44 134 20 45 135 63 45 136 21 45 137 63 46 138 57 46 139 62 46 140 62 47 141 56 47 142 61 47 143 61 48 144 55 48 145 60 48 146 60 49 147 54 49 148 59 49 149 15 50 150 58 50 151 20 50 152 58 51 153 52 51 154 57 51 155 57 52 156 51 52 157 56 52 158 56 53 159 50 53 160 55 53 161 55 54 162 49 54 163 54 54 164 15 55 165 44 55 166 53 55 167 44 56 168 52 56 169 53 56 170 45 57 171 51 57 172 52 57 173 46 58 174 50 58 175 51 58 176 47 59 177 49 59 178 50 59 179 15 60 180 11 60 181 10 60 182 19 61 183 9 61 184 8 61 185 23 62 186 7 62 187 6 62 188 15 63 189 20 63 190 6 63 191 19 64 192 12 64 193 10 64 194 23 65 195 16 65 196 8 65 197 6 66 198 7 66 199 8 66 200 8 67 201 9 67 202 10 67 203 10 68 204 11 68 205 6 68 206 2 69 207 1 69 208 0 69 209 0 70 210 5 70 211 4 70 212 4 71 213 3 71 214 2 71 215 2 72 216 17 72 217 22 72 218 22 73 219 17 73 220 16 73 221 4 74 222 13 74 223 18 74 224 18 75 225 13 75 226 12 75 227 0 76 228 21 76 229 14 76 230 1 77 231 22 77 232 21 77 233 22 78 234 23 78 235 20 78 236 3 79 237 18 79 238 17 79 239 5 80 240 14 80 241 13 80 242 14 81 243 15 81 244 12 81 245 54 82 246 49 82 247 48 82 248 38 83 249 29 83 250 28 83 251 16 84 252 17 84 253 43 84 254 43 85 255 42 85 256 25 85 257 42 86 258 41 86 259 26 86 260 41 87 261 40 87 262 27 87 263 40 88 264 39 88 265 28 88 266 19 89 267 33 89 268 34 89 269 34 90 270 33 90 271 32 90 272 35 91 273 32 91 274 31 91 275 36 92 276 31 92 277 30 92 278 37 93 279 30 93 280 29 93 281 18 94 282 34 94 283 43 94 284 34 95 285 35 95 286 42 95 287 35 96 288 36 96 289 41 96 290 36 97 291 37 97 292 40 97 293 37 98 294 38 98 295 39 98 296 16 99 297 24 99 298 33 99 299 24 100 300 25 100 301 32 100 302 25 101 303 26 101 304 31 101 305 26 102 306 27 102 307 30 102 308 27 103 309 28 103 310 29 103 311 14 104 312 21 104 313 63 104 314 44 105 315 63 105 316 62 105 317 45 106 318 62 106 319 61 106 320 46 107 321 61 107 322 60 107 323 47 108 324 60 108 325 59 108 326 20 109 327 58 109 328 63 109 329 63 110 330 58 110 331 57 110 332 62 111 333 57 111 334 56 111 335 61 112 336 56 112 337 55 112 338 60 113 339 55 113 340 54 113 341 15 114 342 53 114 343 58 114 344 58 115 345 53 115 346 52 115 347 57 116 348 52 116 349 51 116 350 56 117 351 51 117 352 50 117 353 55 118 354 50 118 355 49 118 356 15 119 357 14 119 358 44 119 359 44 120 360 45 120 361 52 120 362 45 121 363 46 121 364 51 121 365 46 122 366 47 122 367 50 122 368 47 123 369 48 123 370 49 123 371</p>
        </triangles>
      </mesh>
    </geometry>
    <geometry id="Cylinder-mesh" name="Cylinder">
      <mesh>
        <source id="Cylinder-mesh-positions">
          <float_array id="Cylinder-mesh-positions-array" count="192">0 1 -1 0 1 1 0.1950903 0.9807853 -1 0.1950903 0.9807853 1 0.3826835 0.9238795 -1 0.3826835 0.9238795 1 0.5555703 0.8314696 -1 0.5555703 0.8314696 1 0.7071068 0.7071068 -1 0.7071068 0.7071068 1 0.8314696 0.5555703 -1 0.8314696 0.5555703 1 0.9238795 0.3826835 -1 0.9238795 0.3826835 1 0.9807853 0.1950903 -1 0.9807853 0.1950903 1 1 0 -1 1 0 1 0.9807853 -0.1950903 -1 0.9807853 -0.1950903 1 0.9238795 -0.3826835 -1 0.9238795 -0.3826835 1 0.8314696 -0.5555703 -1 0.8314696 -0.5555703 1 0.7071068 -0.7071068 -1 0.7071068 -0.7071068 1 0.5555703 -0.8314696 -1 0.5555703 -0.8314696 1 0.3826835 -0.9238795 -1 0.3826835 -0.9238795 1 0.1950903 -0.9807853 -1 0.1950903 -0.9807853 1 0 -1 -1 0 -1 1 -0.1950903 -0.9807853 -1 -0.1950903 -0.9807853 1 -0.3826835 -0.9238795 -1 -0.3826835 -0.9238795 1 -0.5555703 -0.8314696 -1 -0.5555703 -0.8314696 1 -0.7071068 -0.7071068 -1 -0.7071068 -0.7071068 1 -0.8314696 -0.5555703 -1 -0.8314696 -0.5555703 1 -0.9238795 -0.3826835 -1 -0.9238795 -0.3826835 1 -0.9807853 -0.1950903 -1 -0.9807853 -0.1950903 1 -1 0 -1 -1 0 1 -0.9807853 0.1950903 -1 -0.9807853 0.1950903 1 -0.9238795 0.3826835 -1 -0.9238795 0.3826835 1 -0.8314696 0.5555703 -1 -0.8314696 0.5555703 1 -0.7071068 0.7071068 -1 -0.7071068 0.7071068 1 -0.5555703 0.8314696 -1 -0.5555703 0.8314696 1 -0.3826835 0.9238795 -1 -0.3826835 0.9238795 1 -0.1950903 0.9807853 -1 -0.1950903 0.9807853 1</float_array>
          <technique_common>
            <accessor source="#Cylinder-mesh-positions-array" count="64" stride="3">
              <param name="X" type="float"/>
              <param name="Y" type="float"/>
              <param name="Z" type="float"/>
            </accessor>
          </technique_common>
        </source>
        <source id="Cylinder-mesh-normals">
          <float_array id="Cylinder-mesh-normals-array" count="372">0.09801727 0.9951847 0 0.2902846 0.9569404 0 0.4713967 0.8819213 0 0.6343933 0.7730104 0 0.7730104 0.6343933 0 0.8819213 0.4713967 0 0.9569404 0.2902846 0 0.9951847 0.09801727 0 0.9951847 -0.09801727 0 0.9569404 -0.2902846 0 0.8819213 -0.4713967 0 0.7730104 -0.6343933 0 0.6343933 -0.7730104 0 0.4713967 -0.8819213 0 0.2902846 -0.9569404 0 0.09801727 -0.9951847 0 -0.09801727 -0.9951847 0 -0.2902846 -0.9569404 0 -0.4713967 -0.8819213 0 -0.6343933 -0.7730104 0 -0.7730104 -0.6343933 0 -0.8819213 -0.4713967 0 -0.9569404 -0.2902846 0 -0.9951847 -0.09801727 0 -0.9951847 0.09801727 0 -0.9569404 0.2902846 0 -0.8819213 0.4713967 0 -0.7730104 0.6343933 0 -0.6343933 0.7730104 0 -0.4713967 0.8819213 0 0 0 1 -0.2902846 0.9569404 0 -0.09801727 0.9951847 0 0 0 -1 0.09801727 0.9951847 0 0.2902846 0.9569404 0 0.4713967 0.8819213 0 0.6343933 0.7730104 0 0.7730104 0.6343933 0 0.8819213 0.4713967 0 0.9569404 0.2902846 0 0.9951847 0.09801727 0 0.9951847 -0.09801727 0 0.9569404 -0.2902846 0 0.8819213 -0.4713967 0 0.7730104 -0.6343933 0 0.6343933 -0.7730104 0 0.4713967 -0.8819213 0 0.2902846 -0.9569404 0 0.09801727 -0.9951847 0 -0.09801727 -0.9951847 0 -0.2902846 -0.9569404 0 -0.4713967 -0.8819213 0 -0.6343933 -0.7730104 0 -0.7730104 -0.6343933 0 -0.8819213 -0.4713967 0 -0.9569404 -0.2902846 0 -0.9951847 -0.09801727 0 -0.9951847 0.09801727 0 -0.9569404 0.2902846 0 -0.8819213 0.4713967 0 -0.7730104 0.6343933 0 -0.6343933 0.7730104 0 -0.4713967 0.8819213 0 0 0 1 0 0 1 0 0 1 0 0 1 0 0 1 0 0 1 0 0 1 0 0 1 0 0 1 0 0 1 0 0 1 0 0 1 0 0 1 0 0 1 0 0 1 0 0 1 0 0 1 0 0 1 0 0 1 0 0 1 0 0 1 0 0 1 0 0 1 0 0 1 0 0 1 0 0 1 0 0 1 0 0 1 0 0 1 -0.2902846 0.9569404 0 -0.09801727 0.9951847 0 0 0 -1 0 0 -1 0 0 -1 0 0 -1 0 0 -1 0 0 -1 0 0 -1 0 0 -1 0 0 -1 0 0 -1 0 0 -1 0 0 -1 0 0 -1 0 0 -1 0 0 -1 0 0 -1 0 0 -1 0 0 -1 0 0 -1 0 0 -1 0 0 -1 0 0 -1 0 0 -1 0 0 -1 0 0 -1 0 0 -1 0 0 -1 0 0 -1 0 0 -1</float_array>
          <technique_common>
            <accessor source="#Cylinder-mesh-normals-array" count="124" stride="3">
              <param name="X" type="float"/>
              <param name="Y" type="float"/>
              <param name="Z" type="float"/>
            </accessor>
          </technique_common>
        </source>
        <source id="Cylinder-mesh-map-0">
          <float_array id="Cylinder-mesh-map-0-array" count="744">1 1 0.96875 0.5 1 0.5 0.96875 1 0.9375 0.5 0.96875 0.5 0.9375 1 0.90625 0.5 0.9375 0.5 0.90625 1 0.875 0.5 0.90625 0.5 0.875 1 0.84375 0.5 0.875 0.5 0.84375 1 0.8125 0.5 0.84375 0.5 0.8125 1 0.78125 0.5 0.8125 0.5 0.78125 1 0.75 0.5 0.78125 0.5 0.75 1 0.71875 0.5 0.75 0.5 0.71875 1 0.6875 0.5 0.71875 0.5 0.6875 1 0.65625 0.5 0.6875 0.5 0.65625 1 0.625 0.5 0.65625 0.5 0.625 1 0.59375 0.5 0.625 0.5 0.59375 1 0.5625 0.5 0.59375 0.5 0.5625 1 0.53125 0.5 0.5625 0.5 0.53125 1 0.5 0.5 0.53125 0.5 0.5 1 0.46875 0.5 0.5 0.5 0.46875 1 0.4375 0.5 0.46875 0.5 0.4375 1 0.40625 0.5 0.4375 0.5 0.40625 1 0.375 0.5 0.40625 0.5 0.375 1 0.34375 0.5 0.375 0.5 0.34375 1 0.3125 0.5 0.34375 0.5 0.3125 1 0.28125 0.5 0.3125 0.5 0.28125 1 0.25 0.5 0.28125 0.5 0.25 1 0.21875 0.5 0.25 0.5 0.21875 1 0.1875 0.5 0.21875 0.5 0.1875 1 0.15625 0.5 0.1875 0.5 0.15625 1 0.125 0.5 0.15625 0.5 0.125 1 0.09375 0.5 0.125 0.5 0.09375 1 0.0625 0.5 0.09375 0.5 0.1581559 0.02826887 0.4717311 0.1581559 0.341844 0.4717311 0.0625 1 0.03125 0.5 0.0625 0.5 0.03125 1 0 0.5 0.03125 0.5 0.7968217 0.01461154 0.5146116 0.2031783 0.7031784 0.4853885 1 1 0.96875 1 0.96875 0.5 0.96875 1 0.9375 1 0.9375 0.5 0.9375 1 0.90625 1 0.90625 0.5 0.90625 1 0.875 1 0.875 0.5 0.875 1 0.84375 1 0.84375 0.5 0.84375 1 0.8125 1 0.8125 0.5 0.8125 1 0.78125 1 0.78125 0.5 0.78125 1 0.75 1 0.75 0.5 0.75 1 0.71875 1 0.71875 0.5 0.71875 1 0.6875 1 0.6875 0.5 0.6875 1 0.65625 1 0.65625 0.5 0.65625 1 0.625 1 0.625 0.5 0.625 1 0.59375 1 0.59375 0.5 0.59375 1 0.5625 1 0.5625 0.5 0.5625 1 0.53125 1 0.53125 0.5 0.53125 1 0.5 1 0.5 0.5 0.5 1 0.46875 1 0.46875 0.5 0.46875 1 0.4375 1 0.4375 0.5 0.4375 1 0.40625 1 0.40625 0.5 0.40625 1 0.375 1 0.375 0.5 0.375 1 0.34375 1 0.34375 0.5 0.34375 1 0.3125 1 0.3125 0.5 0.3125 1 0.28125 1 0.28125 0.5 0.28125 1 0.25 1 0.25 0.5 0.25 1 0.21875 1 0.21875 0.5 0.21875 1 0.1875 1 0.1875 0.5 0.1875 1 0.15625 1 0.15625 0.5 0.15625 1 0.125 1 0.125 0.5 0.125 1 0.09375 1 0.09375 0.5 0.09375 1 0.0625 1 0.0625 0.5 0.341844 0.4717311 0.2968217 0.4853885 0.25 0.49 0.25 0.49 0.2031783 0.4853885 0.341844 0.4717311 0.2031783 0.4853885 0.1581559 0.4717311 0.341844 0.4717311 0.1581559 0.4717311 0.1166631 0.4495527 0.08029437 0.4197056 0.08029437 0.4197056 0.05044728 0.3833369 0.02826887 0.341844 0.02826887 0.341844 0.01461154 0.2968217 0.00999999 0.25 0.00999999 0.25 0.01461154 0.2031783 0.02826887 0.341844 0.01461154 0.2031783 0.02826887 0.1581559 0.02826887 0.341844 0.02826887 0.1581559 0.05044728 0.1166631 0.08029437 0.08029437 0.08029437 0.08029437 0.1166631 0.05044728 0.1581559 0.02826887 0.1581559 0.02826887 0.2031783 0.01461154 0.341844 0.02826887 0.2031783 0.01461154 0.25 0.00999999 0.341844 0.02826887 0.25 0.00999999 0.2968217 0.01461154 0.341844 0.02826887 0.341844 0.02826887 0.3833369 0.05044728 0.4197056 0.08029437 0.4197056 0.08029437 0.4495527 0.1166631 0.4717311 0.1581559 0.4717311 0.1581559 0.4853885 0.2031783 0.4717311 0.341844 0.4853885 0.2031783 0.49 0.25 0.4717311 0.341844 0.49 0.25 0.4853885 0.2968217 0.4717311 0.341844 0.4717311 0.341844 0.4495527 0.3833369 0.4197056 0.4197056 0.4197056 0.4197056 0.3833369 0.4495527 0.341844 0.4717311 0.1581559 0.4717311 0.08029437 0.4197056 0.341844 0.4717311 0.08029437 0.4197056 0.02826887 0.341844 0.341844 0.4717311 0.02826887 0.1581559 0.08029437 0.08029437 0.02826887 0.341844 0.08029437 0.08029437 0.1581559 0.02826887 0.02826887 0.341844 0.341844 0.02826887 0.4197056 0.08029437 0.1581559 0.02826887 0.4197056 0.08029437 0.4717311 0.1581559 0.1581559 0.02826887 0.4717311 0.341844 0.4197056 0.4197056 0.4717311 0.1581559 0.4197056 0.4197056 0.341844 0.4717311 0.4717311 0.1581559 0.341844 0.4717311 0.02826887 0.341844 0.1581559 0.02826887 0.0625 1 0.03125 1 0.03125 0.5 0.03125 1 0 1 0 0.5 0.7031784 0.4853885 0.75 0.49 0.7968217 0.4853885 0.7968217 0.4853885 0.841844 0.4717311 0.8833369 0.4495527 0.8833369 0.4495527 0.9197056 0.4197056 0.9495527 0.3833369 0.9495527 0.3833369 0.9717311 0.341844 0.9853885 0.2968217 0.9853885 0.2968217 0.99 0.25 0.9853885 0.2031783 0.9853885 0.2031783 0.9717311 0.1581559 0.9495527 0.1166631 0.9495527 0.1166631 0.9197056 0.08029437 0.8833369 0.05044728 0.8833369 0.05044728 0.841844 0.02826887 0.7968217 0.01461154 0.7968217 0.01461154 0.75 0.00999999 0.7031784 0.01461154 0.7031784 0.01461154 0.658156 0.02826887 0.6166632 0.05044728 0.6166632 0.05044728 0.5802944 0.08029437 0.5504473 0.1166631 0.5504473 0.1166631 0.5282689 0.1581559 0.5146116 0.2031783 0.5146116 0.2031783 0.51 0.25 0.5146116 0.2968217 0.5146116 0.2968217 0.5282689 0.341844 0.5504473 0.3833369 0.5504473 0.3833369 0.5802944 0.4197056 0.6166632 0.4495527 0.6166632 0.4495527 0.658156 0.4717311 0.7031784 0.4853885 0.7031784 0.4853885 0.7968217 0.4853885 0.9853885 0.2968217 0.7968217 0.4853885 0.8833369 0.4495527 0.9853885 0.2968217 0.8833369 0.4495527 0.9495527 0.3833369 0.9853885 0.2968217 0.9853885 0.2968217 0.9853885 0.2031783 0.7968217 0.01461154 0.9853885 0.2031783 0.9495527 0.1166631 0.7968217 0.01461154 0.9495527 0.1166631 0.8833369 0.05044728 0.7968217 0.01461154 0.7968217 0.01461154 0.7031784 0.01461154 0.5146116 0.2031783 0.7031784 0.01461154 0.6166632 0.05044728 0.5146116 0.2031783 0.6166632 0.05044728 0.5504473 0.1166631 0.5146116 0.2031783 0.5146116 0.2031783 0.5146116 0.2968217 0.7031784 0.4853885 0.5146116 0.2968217 0.5504473 0.3833369 0.7031784 0.4853885 0.5504473 0.3833369 0.6166632 0.4495527 0.7031784 0.4853885 0.7031784 0.4853885 0.9853885 0.2968217 0.7968217 0.01461154</float_array>
          <technique_common>
            <accessor source="#Cylinder-mesh-map-0-array" count="372" stride="2">
              <param name="S" type="float"/>
              <param name="T" type="float"/>
            </accessor>
          </technique_common>
        </source>
        <vertices id="Cylinder-mesh-vertices">
          <input semantic="POSITION" source="#Cylinder-mesh-positions"/>
        </vertices>
        <triangles material="WoodDark_006-material" count="124">
          <input semantic="VERTEX" source="#Cylinder-mesh-vertices" offset="0"/>
          <input semantic="NORMAL" source="#Cylinder-mesh-normals" offset="1"/>
          <input semantic="TEXCOORD" source="#Cylinder-mesh-map-0" offset="2" set="0"/>
          <p>1 0 0 2 0 1 0 0 2 3 1 3 4 1 4 2 1 5 5 2 6 6 2 7 4 2 8 7 3 9 8 3 10 6 3 11 9 4 12 10 4 13 8 4 14 11 5 15 12 5 16 10 5 17 13 6 18 14 6 19 12 6 20 15 7 21 16 7 22 14 7 23 17 8 24 18 8 25 16 8 26 19 9 27 20 9 28 18 9 29 21 10 30 22 10 31 20 10 32 23 11 33 24 11 34 22 11 35 25 12 36 26 12 37 24 12 38 27 13 39 28 13 40 26 13 41 29 14 42 30 14 43 28 14 44 31 15 45 32 15 46 30 15 47 33 16 48 34 16 49 32 16 50 35 17 51 36 17 52 34 17 53 37 18 54 38 18 55 36 18 56 39 19 57 40 19 58 38 19 59 41 20 60 42 20 61 40 20 62 43 21 63 44 21 64 42 21 65 45 22 66 46 22 67 44 22 68 47 23 69 48 23 70 46 23 71 49 24 72 50 24 73 48 24 74 51 25 75 52 25 76 50 25 77 53 26 78 54 26 79 52 26 80 55 27 81 56 27 82 54 27 83 57 28 84 58 28 85 56 28 86 59 29 87 60 29 88 58 29 89 37 30 90 21 30 91 5 30 92 61 31 93 62 31 94 60 31 95 63 32 96 0 32 97 62 32 98 30 33 99 46 33 100 62 33 101 1 34 102 3 34 103 2 34 104 3 35 105 5 35 106 4 35 107 5 36 108 7 36 109 6 36 110 7 37 111 9 37 112 8 37 113 9 38 114 11 38 115 10 38 116 11 39 117 13 39 118 12 39 119 13 40 120 15 40 121 14 40 122 15 41 123 17 41 124 16 41 125 17 42 126 19 42 127 18 42 128 19 43 129 21 43 130 20 43 131 21 44 132 23 44 133 22 44 134 23 45 135 25 45 136 24 45 137 25 46 138 27 46 139 26 46 140 27 47 141 29 47 142 28 47 143 29 48 144 31 48 145 30 48 146 31 49 147 33 49 148 32 49 149 33 50 150 35 50 151 34 50 152 35 51 153 37 51 154 36 51 155 37 52 156 39 52 157 38 52 158 39 53 159 41 53 160 40 53 161 41 54 162 43 54 163 42 54 164 43 55 165 45 55 166 44 55 167 45 56 168 47 56 169 46 56 170 47 57 171 49 57 172 48 57 173 49 58 174 51 58 175 50 58 176 51 59 177 53 59 178 52 59 179 53 60 180 55 60 181 54 60 182 55 61 183 57 61 184 56 61 185 57 62 186 59 62 187 58 62 188 59 63 189 61 63 190 60 63 191 5 64 192 3 64 193 1 64 194 1 65 195 63 65 196 5 65 197 63 66 198 61 66 199 5 66 200 61 67 201 59 67 202 57 67 203 57 68 204 55 68 205 53 68 206 53 69 207 51 69 208 49 69 209 49 70 210 47 70 211 53 70 212 47 71 213 45 71 214 53 71 215 45 72 216 43 72 217 41 72 218 41 73 219 39 73 220 37 73 221 37 74 222 35 74 223 29 74 224 35 75 225 33 75 226 29 75 227 33 76 228 31 76 229 29 76 230 29 77 231 27 77 232 25 77 233 25 78 234 23 78 235 21 78 236 21 79 237 19 79 238 13 79 239 19 80 240 17 80 241 13 80 242 17 81 243 15 81 244 13 81 245 13 82 246 11 82 247 9 82 248 9 83 249 7 83 250 5 83 251 61 84 252 57 84 253 5 84 254 57 85 255 53 85 256 5 85 257 45 86 258 41 86 259 53 86 260 41 87 261 37 87 262 53 87 263 29 88 264 25 88 265 37 88 266 25 89 267 21 89 268 37 89 269 13 90 270 9 90 271 21 90 272 9 91 273 5 91 274 21 91 275 5 92 276 53 92 277 37 92 278 61 93 279 63 93 280 62 93 281 63 94 282 1 94 283 0 94 284 62 95 285 0 95 286 2 95 287 2 96 288 4 96 289 6 96 290 6 97 291 8 97 292 10 97 293 10 98 294 12 98 295 14 98 296 14 99 297 16 99 298 18 99 299 18 100 300 20 100 301 22 100 302 22 101 303 24 101 304 26 101 305 26 102 306 28 102 307 30 102 308 30 103 309 32 103 310 34 103 311 34 104 312 36 104 313 38 104 314 38 105 315 40 105 316 42 105 317 42 106 318 44 106 319 46 106 320 46 107 321 48 107 322 50 107 323 50 108 324 52 108 325 54 108 326 54 109 327 56 109 328 58 109 329 58 110 330 60 110 331 62 110 332 62 111 333 2 111 334 14 111 335 2 112 336 6 112 337 14 112 338 6 113 339 10 113 340 14 113 341 14 114 342 18 114 343 30 114 344 18 115 345 22 115 346 30 115 347 22 116 348 26 116 349 30 116 350 30 117 351 34 117 352 46 117 353 34 118 354 38 118 355 46 118 356 38 119 357 42 119 358 46 119 359 46 120 360 50 120 361 62 120 362 50 121 363 54 121 364 62 121 365 54 122 366 58 122 367 62 122 368 62 123 369 14 123 370 30 123 371</p>
        </triangles>
      </mesh>
    </geometry>
  </library_geometries>
  <library_visual_scenes>
    <visual_scene id="Scene" name="Scene">
      <node id="Circle" name="Circle" type="NODE">
        <matrix sid="transform">0.1171356 -0.06762829 0 0 0.06762829 0.1171356 0 0 0 0 0.1352566 1.713803 0 0 0 1</matrix>
        <instance_geometry url="#Circle_001-mesh" name="Circle">
          <bind_material>
            <technique_common>
              <instance_material symbol="Material_002-material" target="#Material_002-material">
                <bind_vertex_input semantic="UVMap" input_semantic="TEXCOORD" input_set="0"/>
              </instance_material>
            </technique_common>
          </bind_material>
        </instance_geometry>
      </node>
      <node id="Cylinder" name="Cylinder" type="NODE">
        <matrix sid="transform">0.07295769 0 0 0 0 0.07295769 0 0 0 0 1 1.011712 0 0 0 1</matrix>
        <instance_geometry url="#Cylinder-mesh" name="Cylinder">
          <bind_material>
            <technique_common>
              <instance_material symbol="WoodDark_006-material" target="#WoodDark_006-material">
                <bind_vertex_input semantic="UVMap" input_semantic="TEXCOORD" input_set="0"/>
              </instance_material>
            </technique_common>
          </bind_material>
        </instance_geometry>
      </node>
    </visual_scene>
  </library_visual_scenes>
  <scene>
    <instance_visual_scene url="#Scene"/>
  </scene>
</COLLADA>